<?xml version="1.0" encoding="utf-8"?>
<!-- Generator: Adobe Illustrator 23.0.1, SVG Export Plug-In . SVG Version: 6.00 Build 0)  -->
<svg version="1.1" id="Layer_1" xmlns="http://www.w3.org/2000/svg" xmlns:xlink="http://www.w3.org/1999/xlink" x="0px" y="0px"
	 viewBox="0 0 900 1080" style="enable-background:new 0 0 900 1080;" xml:space="preserve">
<style type="text/css">
	.st0{opacity:0.48;}
	.st1{opacity:0.3;}
</style>
<path class="st0" d="M119.5,849.7c3.7,5.4,3.9,11.1,0.8,16.8c-1,1.9-2.3,3.7-3.7,5.3c-4.1,5.1-8.4,10.1-12.6,15.1v1.7
	c5.1-1,10.4-1.3,15.1-3.2c12.6-4.8,24.9-10.3,37.3-15.5c1.7-0.7,3.1-1.6,4.9-0.1c14.4,11.2,30.7,18.6,48.1,23.9
	c0.8,0.3,1.7,0.6,3.2,1.2c-4.1,3.3-7.6,6.3-11.8,9.7c3.2,0.6,5.5,1.2,7.9,1.6c5.9,1,11.8,1.9,17.8,2.8h2.8c0.2-0.1,0.5-0.4,0.7-0.4
	c11-0.5,21-4.3,30.6-9.2c1.3-0.7,2.8-1,4.3-1.2c9.3-1.3,18.3-3.5,26.9-7.4c3.2-1.4,3.3-2.1,0.6-4c-1.9-1.4-4-2.6-5.7-4.1
	c-1-0.9-1.6-2.2-2.4-3.4c0.2-0.2,0.4-0.4,0.6-0.5c0.6,0.2,1.2,0.3,1.8,0.5c3.9,1.4,7.7,3.1,11.7,4.2c2.6,0.7,5.8,1.4,8.2,0.5
	c7.3-2.4,14-6.2,19.4-11.8c4.8-5.1,6.3-11.3,3.1-17.7c-2-4-4.4-8-7.4-11.3c-15.4-17.2-34.8-27-57.5-30.6c-6.2-1-12.6-0.7-18.6-3.3
	c-12.1-5.3-24.6-5.3-37.2-2.3c-3.1,0.7-6.2,1.7-10,2.8c4,2.9,7.3,5.2,10.9,7.8c-5.3,2.2-10.2,3.6-14.6,6.1
	c-11.7,6.6-23.3,13.5-34.8,20.5c-2.5,1.5-4.9,2-7.4,0.6c-10.7-5.9-21.4-11.8-32.2-17.8c-3.8-2.1-7.5-4.3-11.5-6
	c-1.3-0.6-3.2,0.4-4.9,0.7v2.8c2.4,4.4,4.6,8.8,7.2,13C113.7,841.8,116.7,845.7,119.5,849.7z"/>
<path class="st1" d="M797.9,90.2c-2.2,3.2-2.3,6.5-0.5,9.8c0.6,1.1,1.4,2.1,2.2,3.1c2.4,3,4.9,5.9,7.4,8.9v1c-3-0.6-6.1-0.8-8.8-1.9
	c-7.4-2.8-14.6-6-21.9-9.1c-1-0.4-1.8-0.9-2.9-0.1c-8.5,6.6-18,10.9-28.2,14c-0.5,0.1-1,0.4-1.9,0.7c2.4,2,4.5,3.7,6.9,5.7
	c-1.8,0.4-3.2,0.7-4.6,0.9c-3.5,0.6-6.9,1.1-10.4,1.7h-1.7c-0.1-0.1-0.3-0.2-0.4-0.2c-6.4-0.3-12.3-2.6-18-5.4
	c-0.8-0.4-1.7-0.6-2.5-0.7c-5.5-0.7-10.7-2-15.8-4.3c-1.9-0.8-1.9-1.2-0.3-2.4c1.1-0.8,2.3-1.5,3.4-2.4c0.6-0.5,0.9-1.3,1.4-2
	c-0.1-0.1-0.2-0.2-0.4-0.3c-0.4,0.1-0.7,0.2-1.1,0.3c-2.3,0.8-4.5,1.8-6.9,2.5c-1.5,0.4-3.4,0.8-4.8,0.3c-4.3-1.4-8.2-3.6-11.4-6.9
	c-2.8-3-3.7-6.6-1.8-10.4c1.2-2.4,2.6-4.7,4.3-6.6c9-10.1,20.4-15.8,33.7-18c3.6-0.6,7.4-0.4,10.9-1.9c7.1-3.1,14.4-3.1,21.8-1.3
	c1.8,0.4,3.6,1,5.9,1.6c-2.3,1.7-4.3,3.1-6.4,4.6c3.1,1.3,6,2.1,8.6,3.6c6.9,3.9,13.7,7.9,20.4,12c1.5,0.9,2.9,1.2,4.4,0.3
	c6.3-3.5,12.6-6.9,18.9-10.4c2.2-1.2,4.4-2.5,6.7-3.5c0.8-0.3,1.9,0.2,2.9,0.4v1.7c-1.4,2.6-2.7,5.2-4.2,7.6
	C801.3,85.6,799.6,87.9,797.9,90.2z"/>
</svg>
