<?xml version="1.0" encoding="utf-8"?>
<!-- Generator: Adobe Illustrator 23.0.1, SVG Export Plug-In . SVG Version: 6.00 Build 0)  -->
<svg version="1.1" id="Layer_1" xmlns="http://www.w3.org/2000/svg" xmlns:xlink="http://www.w3.org/1999/xlink" x="0px" y="0px"
	 viewBox="0 0 1248.2 628.8" style="enable-background:new 0 0 1248.2 628.8;" xml:space="preserve">
<style type="text/css">
	.st0{fill:#282828;}
	.st1{fill:#FFFFFF;}
</style>
<path class="st0" d="M803.8,276.1c-46.5-7.8-63.4-16.6-112.3-40.1c-48.9-23.4-67.4-77.5-67.4-77.5c2.3-20.5,12-82.2,63.1-123.9
	c13-10.6,26.3-18,38.3-23.1C535.3-28.7,435.3,131.5,402,157.7C382.4,173,225.1,245,196,239c-0.4-0.1-0.7-0.2-0.7-0.2
	c-27.3-7.3-50.7,20-50.7,20l-8.8,10.8C9.2,309.8,0,351.5,0,351.5s6,60.6,151.1,117c0,0,3.7-2.5,10.4-6.1l0.5-0.3l5.5,7.4
	c0,0,3.2-8.4,9.9-14.4l5.6-2.6c2.5-1,5.1-1.9,7.8-2.9l0.3-0.1l7,15.7c0,0,1.6-12.7,10.4-20.6l6.3-1.8c0.5-0.1,1-0.2,1.5-0.3
	c3.9-0.8,7.9-1.6,12.1-2.2l4.6,24.3c0.1-0.4,5.7-20.4,17.9-26.4c0.3-0.1,0.6-0.1,1-0.1c3-0.1,6-0.1,9.1-0.1v0l0.9,6.2l3.1,22.1
	c0,0,11.3-27.9,19.5-26.7c3.5,0.4,6.9,1,10.5,1.6l1,30c0.2-0.6,6.4-19.5,17.9-25.6c2.4,0.7,4.8,1.4,7.2,2.2l-4.8,33.8
	c0,0,16.7-29.6,28.2-24.8c0.1,0,0.2,0.1,0.3,0.1c0.1,0,0.2,0.1,0.3,0.2c1.5,0.7,3,1.4,4.5,2.1l-9.5,37.2
	c0.4-0.6,17.4-25.1,31.9-24.8c1.8,1.1,3.5,2.2,5.3,3.4c1,0.6,1.9,1.3,2.9,1.9l-15,31.5c0,0,18.6-14.8,32.1-19.1
	c0.1,0.1,0.2,0.2,0.3,0.2c0,0,21,19.5-21.1,50.6c0,0,0,0,0,0c0.9,0.7,39.8,30.1,134.7-28.5c1.4,1.7,2.4,2.8,2.8,3.3
	c0,0.1,0.1,0.1,0.1,0.2c0,0.1,0.1,0.1,0.1,0.1c57.4,69.6,148.2,113.5,148.2,113.5c-56.9-146-36-150-36-150
	c121.9-93.3,222-105.1,222-105.1s41.3-8.6,118,13.3l122.8,83.5c96.4,67.4,159,42.7,159,42.7l-46.3-57.7l-28.7,0.4
	c-72.9-59.8-139.3-169.4-139.3-169.4c-40.9-17.8-33.6-18.4-33.6-18.4c5.6-3,23.9,0.6,23.9,0.6c-11-26.8,34.9-155.1,37.2-174.4
	C1063.4,77.5,1099,0,1099,0c-65.1,12.2-101.1,58.6-101.1,58.6c-20.7,59.6-39.1,90.5-39.1,90.5s-18.4,61.7-73.3,99.2
	C830.5,285.7,803.8,276.1,803.8,276.1z"/>
<g>
	<path class="st1" d="M79.9,380.4c-7.3,0-14-1.2-20.2-3.5c-6.2-2.3-11.5-5.8-15.9-10.5c-4.4-4.6-7.9-10.4-10.3-17.3
		c-2.4-6.9-3.7-14.9-3.7-24c0-8.5,1.2-16.1,3.5-23c2.3-6.9,5.7-12.8,10.2-17.7c4.3-4.7,9.6-8.4,15.9-11c6.3-2.6,13.2-3.9,20.7-3.9
		c4.1,0,7.9,0.3,11.2,0.8c3.3,0.5,6.4,1.2,9.2,2c2.9,0.9,5.6,1.9,8,3c2.4,1.1,4.5,2.2,6.3,3.1v25.9h-2.9c-1.2-1.1-2.8-2.5-4.7-4.1
		c-1.9-1.6-4-3.1-6.4-4.6c-2.4-1.5-5-2.8-7.9-3.8c-2.8-1-5.8-1.6-9-1.6c-3.6,0-6.9,0.6-10.2,1.8c-3.2,1.2-6.2,3.2-8.9,6
		c-2.6,2.7-4.7,6.3-6.3,10.8c-1.6,4.5-2.4,9.9-2.4,16.3c0,6.7,0.9,12.3,2.6,16.7c1.7,4.5,3.9,8,6.6,10.6c2.7,2.6,5.7,4.5,9,5.6
		c3.3,1.1,6.6,1.7,9.8,1.7c3.1,0,6.1-0.5,9.1-1.5c3-1,5.8-2.4,8.3-4.1c2.2-1.4,4.2-2.8,6-4.4c1.8-1.6,3.4-2.9,4.6-4.1h2.6v25.5
		c-2.5,1.2-4.8,2.3-7.1,3.4s-4.6,2-7.1,2.7c-3.2,1-6.2,1.8-9,2.3C88.7,380.1,84.8,380.4,79.9,380.4z"/>
	<path class="st1" d="M221.3,378.3H196v-47h-37.4v47h-25.3V271.7h25.3v39H196v-39h25.3V378.3z"/>
	<path class="st1" d="M317.4,378.3h-71V271.7h71v20.6h-45.8v18.4h42.5v20.6h-42.5v26.4h45.8V378.3z"/>
	<path class="st1" d="M429.4,378.3h-26.2l-6.8-21.6h-36.3l-6.8,21.6h-25.5L364,271.7h29.2L429.4,378.3z M390.3,337.2L378.3,299
		l-12.1,38.2H390.3z"/>
	<path class="st1" d="M524.6,305.3c0,4.8-0.8,9.4-2.3,14c-1.5,4.6-3.7,8.4-6.6,11.5c-3.9,4.2-8.3,7.4-13.1,9.5
		c-4.8,2.1-10.8,3.2-18,3.2h-15.8v34.7h-25.3V271.7h41.7c6.2,0,11.5,0.6,15.8,1.8c4.3,1.2,8.1,2.9,11.4,5.3c4,2.8,7,6.4,9.1,10.8
		C523.6,293.9,524.6,299.2,524.6,305.3z M498.4,305.9c0-3-0.7-5.6-2.2-7.8c-1.5-2.2-3.2-3.7-5.2-4.5c-2.6-1.1-5.2-1.8-7.7-1.9
		c-2.5-0.1-5.8-0.2-10-0.2h-4.4v31.9h7.3c4.3,0,7.9-0.3,10.7-0.9c2.8-0.6,5.1-1.7,7-3.4c1.6-1.5,2.8-3.3,3.5-5.5
		C498.1,311.6,498.4,309,498.4,305.9z"/>
	<path class="st1" d="M621.2,344.8c0,10.5-4.1,19-12.3,25.6c-8.2,6.6-19.3,9.9-33.4,9.9c-8.1,0-15.2-0.8-21.3-2.3
		c-6-1.6-11.7-3.5-17-5.9v-25.6h2.8c5.2,4.5,11.1,8,17.6,10.5c6.5,2.4,12.7,3.7,18.7,3.7c1.5,0,3.6-0.1,6.1-0.4
		c2.5-0.3,4.6-0.8,6.1-1.4c1.9-0.9,3.5-1.9,4.8-3.2c1.3-1.3,1.9-3.2,1.9-5.7c0-2.3-0.9-4.4-2.7-6.1c-1.8-1.7-4.5-3-8-3.9
		c-3.7-1-7.6-1.9-11.7-2.7c-4.1-0.8-8-1.9-11.6-3.2c-8.3-2.9-14.2-6.9-17.8-11.9c-3.6-5-5.4-11.2-5.4-18.6c0-9.9,4.1-18,12.3-24.3
		c8.2-6.3,18.7-9.4,31.6-9.4c6.5,0,12.9,0.7,19.2,2c6.3,1.4,11.8,3.1,16.4,5.1v24.6h-2.7c-4-3.4-8.8-6.3-14.5-8.6
		c-5.7-2.3-11.6-3.5-17.6-3.5c-2.1,0-4.2,0.2-6.3,0.5c-2.1,0.3-4.1,0.9-6,1.8c-1.7,0.7-3.2,1.8-4.4,3.3c-1.2,1.5-1.8,3.1-1.8,5
		c0,2.8,1,5,3,6.5c2,1.5,5.7,2.9,11.2,4.1c3.6,0.8,7.1,1.6,10.4,2.4c3.3,0.8,6.9,1.8,10.7,3.2c7.5,2.7,13.1,6.3,16.7,10.9
		C619.4,331.5,621.2,337.4,621.2,344.8z"/>
	<path class="st1" d="M726.6,378.3h-25.3v-47h-37.4v47h-25.3V271.7h25.3v39h37.4v-39h25.3V378.3z"/>
	<path class="st1" d="M842.5,378.3h-26.2l-6.8-21.6h-36.3l-6.8,21.6h-25.5L777,271.7h29.2L842.5,378.3z M803.4,337.2L791.3,299
		l-12.1,38.2H803.4z"/>
	<path class="st1" d="M951.2,378.3h-30.9l-26.7-39.1h-11.7v39.1h-25.2V271.7h42.5c5.8,0,10.8,0.4,15,1.1c4.2,0.7,8.1,2.3,11.7,4.7
		c3.7,2.4,6.6,5.5,8.8,9.3c2.2,3.8,3.3,8.6,3.3,14.3c0,7.9-1.7,14.3-5,19.3c-3.4,5-8.2,9.1-14.4,12.4L951.2,378.3z M911.7,304.3
		c0-2.7-0.5-5-1.5-6.9c-1-1.9-2.7-3.4-5.2-4.5c-1.7-0.8-3.7-1.2-6-1.4c-2.3-0.2-4.9-0.3-8-0.3h-9.2V320h7.8c4,0,7.4-0.2,10.2-0.6
		c2.7-0.4,5-1.4,6.9-2.9c1.8-1.5,3-3.1,3.9-4.9S911.7,307.3,911.7,304.3z"/>
	<path class="st1" d="M1054,378.3h-31.1l-29.4-42.7l-5.9,7.9v34.8h-25.3V271.7h25.3V320l35.1-48.3h29.4l-38.4,49.4L1054,378.3z"/>
</g>
<path class="st0" d="M765.3-739l-12.1,38.2h24.2L765.3-739z M883.2-739.8c-1.5-2.2-3.2-3.7-5.2-4.5c-2.6-1.1-5.2-1.8-7.7-1.9
	c-2.5-0.1-5.8-0.2-10-0.2h-4.4v31.9h7.3c4.3,0,7.9-0.3,10.7-0.9c2.8-0.6,5.1-1.7,7-3.4c1.6-1.5,2.8-3.3,3.5-5.5
	c0.7-2.1,1.1-4.7,1.1-7.8C885.4-735.1,884.7-737.6,883.2-739.8z M883.2-739.8c-1.5-2.2-3.2-3.7-5.2-4.5c-2.6-1.1-5.2-1.8-7.7-1.9
	c-2.5-0.1-5.8-0.2-10-0.2h-4.4v31.9h7.3c4.3,0,7.9-0.3,10.7-0.9c2.8-0.6,5.1-1.7,7-3.4c1.6-1.5,2.8-3.3,3.5-5.5
	c0.7-2.1,1.1-4.7,1.1-7.8C885.4-735.1,884.7-737.6,883.2-739.8z M765.3-739l-12.1,38.2h24.2L765.3-739z M765.3-739l-12.1,38.2h24.2
	L765.3-739z M883.2-739.8c-1.5-2.2-3.2-3.7-5.2-4.5c-2.6-1.1-5.2-1.8-7.7-1.9c-2.5-0.1-5.8-0.2-10-0.2h-4.4v31.9h7.3
	c4.3,0,7.9-0.3,10.7-0.9c2.8-0.6,5.1-1.7,7-3.4c1.6-1.5,2.8-3.3,3.5-5.5c0.7-2.1,1.1-4.7,1.1-7.8
	C885.4-735.1,884.7-737.6,883.2-739.8z M883.2-739.8c-1.5-2.2-3.2-3.7-5.2-4.5c-2.6-1.1-5.2-1.8-7.7-1.9c-2.5-0.1-5.8-0.2-10-0.2
	h-4.4v31.9h7.3c4.3,0,7.9-0.3,10.7-0.9c2.8-0.6,5.1-1.7,7-3.4c1.6-1.5,2.8-3.3,3.5-5.5c0.7-2.1,1.1-4.7,1.1-7.8
	C885.4-735.1,884.7-737.6,883.2-739.8z M765.3-739l-12.1,38.2h24.2L765.3-739z M1178.3-739l-12.1,38.2h24.2L1178.3-739z
	 M1297.2-740.5c-1-1.9-2.8-3.4-5.2-4.5c-1.7-0.8-3.7-1.2-6-1.4c-2.3-0.2-4.9-0.3-8-0.3h-9.2v28.7h7.8c4,0,7.4-0.2,10.2-0.6
	c2.7-0.4,5-1.4,6.9-2.9c1.8-1.5,3-3.1,3.8-4.9c0.8-1.8,1.2-4.2,1.2-7.2C1298.7-736.3,1298.2-738.6,1297.2-740.5z M1280.5-698.8
	h-11.7v33c10.1,0.4,22.5,1.6,37,4L1280.5-698.8z M1588.9-582.6l-28.7,0.4c-63.8-52.3-122.6-142.8-136.3-164.6l-23.2,29.8l40.3,57.3
	h-31.1l-29.4-42.7l-5.9,7.9v34.8h-25.3v-106.7h25.3v48.3l29.8-41.1c-22.2-10.5-17.1-11-17.1-11c5.6-3,23.9,0.6,23.9,0.6
	c-11-26.8,34.9-155.1,37.2-174.4c2-16.7,37.6-94.2,37.6-94.2c-65.1,12.2-101.1,58.6-101.1,58.6c-20.7,59.6-39.1,90.5-39.1,90.5
	s-18.4,61.7-73.3,99.2c-42.4,28.9-68,29.8-77.5,28.7l33.3,97.9c4.6-0.9,7.1-1.1,7.1-1.1s2.8-0.6,8.2-1.1v-101h42.5
	c5.8,0,10.8,0.4,15,1.1c4.2,0.7,8.1,2.3,11.7,4.7c3.7,2.4,6.6,5.5,8.8,9.3c2.2,3.8,3.3,8.6,3.3,14.3c0,7.9-1.7,14.3-5,19.3
	c-3.4,5-8.2,9.1-14.4,12.4l32.8,45.7h-20.6c10.9,2.1,22.8,5,35.8,8.7l122.8,83.5c96.4,67.4,159,42.7,159,42.7L1588.9-582.6z
	 M1291.9-745.1c-1.7-0.8-3.7-1.2-6-1.4c-2.3-0.2-4.9-0.3-8-0.3h-9.2v28.7h7.8c4,0,7.4-0.2,10.2-0.6c2.7-0.4,5-1.4,6.9-2.9
	c1.8-1.5,3-3.1,3.8-4.9c0.8-1.8,1.2-4.2,1.2-7.2c0-2.7-0.5-5-1.5-6.9C1296.1-742.5,1294.4-744,1291.9-745.1z M1166.2-700.8h24.2
	l-12.1-38.2L1166.2-700.8z M765.3-739l-12.1,38.2h24.2L765.3-739z M883.2-739.8c-1.5-2.2-3.2-3.7-5.2-4.5c-2.6-1.1-5.2-1.8-7.7-1.9
	c-2.5-0.1-5.8-0.2-10-0.2h-4.4v31.9h7.3c4.3,0,7.9-0.3,10.7-0.9c2.8-0.6,5.1-1.7,7-3.4c1.6-1.5,2.8-3.3,3.5-5.5
	c0.7-2.1,1.1-4.7,1.1-7.8C885.4-735.1,884.7-737.6,883.2-739.8z M883.2-739.8c-1.5-2.2-3.2-3.7-5.2-4.5c-2.6-1.1-5.2-1.8-7.7-1.9
	c-2.5-0.1-5.8-0.2-10-0.2h-4.4v31.9h7.3c4.3,0,7.9-0.3,10.7-0.9c2.8-0.6,5.1-1.7,7-3.4c1.6-1.5,2.8-3.3,3.5-5.5
	c0.7-2.1,1.1-4.7,1.1-7.8C885.4-735.1,884.7-737.6,883.2-739.8z M765.3-739l-12.1,38.2h24.2L765.3-739z M1013.3-559.2
	c86.7-66.3,162.4-91.5,198.9-100.5h-8.9l-6.8-21.6h-36.3l-6.8,21.6h-25.5l36.3-106.7h4.1c-31-7-49.6-16.5-89.6-35.6
	c-48.9-23.4-67.4-77.5-67.4-77.5c2.3-20.5,12-82.2,63.1-124c13-10.6,26.3-18,38.3-23.1C922.3-1066.7,822.3-906.5,789-880.3
	C769.4-865,612-793,583-799c-0.4-0.1-0.7-0.1-0.7-0.1c-27.3-7.3-50.7,20-50.7,20l-8.8,10.8c-8.2,2.6-15.9,5.2-23.2,7.8
	c-12.2,4.4-23,8.7-32.7,13c-5,2.2-9.8,4.4-14.2,6.6c-0.3,0.3-0.7,0.6-1,1c-2.6,2.7-4.7,6.3-6.3,10.8c-1.6,4.5-2.4,9.9-2.4,16.3
	c0,6.7,0.9,12.3,2.6,16.7c1.7,4.5,3.9,8,6.6,10.6c2.7,2.6,5.7,4.5,9,5.6c3.3,1.1,6.6,1.7,9.8,1.7c3.1,0,6.1-0.5,9.1-1.5
	s5.8-2.3,8.3-4.1c2.2-1.4,4.2-2.8,6-4.4c1.8-1.6,3.4-2.9,4.6-4.1h2.6v25.5c-2.5,1.2-4.8,2.3-7.1,3.4s-4.6,2-7.1,2.7
	c-3.2,1-6.2,1.8-9,2.3c-2.8,0.5-6.7,0.8-11.6,0.8c-7.3,0-14-1.2-20.2-3.5c-6.2-2.3-11.5-5.8-15.9-10.5c-4.4-4.6-7.9-10.4-10.3-17.3
	c-2.4-6.9-3.7-14.9-3.7-24c0-2.4,0.1-4.7,0.3-7c-26.9,19.5-30,33.4-30,33.4s6,60.6,151.1,117c0,0,3.7-2.5,10.4-6.1l0.5-0.3l5.5,7.4
	c0,0,3.2-8.4,9.9-14.4l5.6-2.6c2.5-1,5.1-1.9,7.8-2.9l0.3-0.1l7,15.7c0,0,1.6-12.7,10.4-20.6l6.3-1.8c0.5-0.1,1-0.2,1.5-0.3
	c3.9-0.8,7.9-1.6,12.1-2.2l4.6,24.3c0.1-0.4,5.7-20.4,17.9-26.4c0.3-0.1,0.6-0.1,1-0.1c3-0.1,6-0.1,9.1-0.1v0l0.9,6.2l3.1,22.1
	c0,0,11.3-27.9,19.5-26.7c3.5,0.4,7,1,10.5,1.6l1,30c0.2-0.6,6.5-19.5,17.9-25.6c2.4,0.7,4.8,1.4,7.2,2.2l-4.8,33.8
	c0,0,16.7-29.6,28.2-24.8c0.1,0,0.2,0.1,0.3,0.1c0.1,0,0.2,0.1,0.3,0.2c1.5,0.7,3,1.4,4.5,2.1l-9.5,37.2
	c0.4-0.6,17.4-25.1,31.9-24.8c1.8,1.1,3.5,2.2,5.3,3.4c1,0.6,1.9,1.3,2.9,1.9l-15,31.5c0.6-0.5,18.8-14.9,32.1-19
	c0.1,0.1,0.2,0.2,0.3,0.2c0,0,21,19.5-21.1,50.6l0,0c0.9,0.7,39.9,30.1,134.7-28.5c1.4,1.7,2.4,2.8,2.8,3.3c0,0.1,0.1,0.1,0.1,0.2
	c0,0.1,0.1,0.1,0.1,0.1c57.4,69.6,148.2,113.5,148.2,113.5C992.4-555.2,1013.3-559.2,1013.3-559.2z M1025.6-766.3h25.3v39h37.4v-39
	h25.3v106.7h-25.3v-47h-37.4v47h-25.3V-766.3z M608.3-659.7H583v-47h-37.4v47h-25.3v-106.7h25.3v39H583v-39h25.3V-659.7z
	 M704.4-745.7h-45.9v18.4h42.5v20.6h-42.5v26.4h45.9v20.6h-71.1v-106.7h71.1V-745.7z M790.3-659.7l-6.8-21.6h-36.3l-6.8,21.6h-25.5
	L751-766.3h29.2l36.3,106.7H790.3z M909.3-718.7c-1.5,4.6-3.7,8.4-6.6,11.5c-3.9,4.2-8.3,7.4-13.1,9.5c-4.8,2.1-10.8,3.2-18,3.2
	h-15.8v34.8h-25.3v-106.7h41.7c6.3,0,11.5,0.6,15.8,1.8c4.3,1.2,8.1,2.9,11.4,5.3c4,2.8,7,6.4,9.1,10.8c2.1,4.4,3.1,9.7,3.1,15.8
	C911.6-727.9,910.9-723.2,909.3-718.7z M995.9-667.6c-8.2,6.6-19.3,9.8-33.4,9.8c-8.1,0-15.2-0.8-21.3-2.3c-6-1.6-11.7-3.5-17-5.9
	v-25.6h2.8c5.2,4.5,11.1,8,17.6,10.5c6.5,2.4,12.7,3.7,18.7,3.7c1.5,0,3.6-0.1,6.1-0.4c2.5-0.3,4.5-0.8,6.1-1.4
	c1.9-0.9,3.5-1.9,4.8-3.2c1.3-1.3,1.9-3.2,1.9-5.7c0-2.3-0.9-4.4-2.7-6.1c-1.8-1.7-4.5-3-8-3.9c-3.7-1-7.6-1.8-11.7-2.7
	c-4.1-0.8-8-1.9-11.6-3.2c-8.3-2.9-14.2-6.9-17.9-11.8c-3.6-5-5.4-11.2-5.4-18.6c0-9.9,4.1-18,12.3-24.3c8.2-6.3,18.8-9.4,31.6-9.4
	c6.5,0,12.9,0.7,19.2,2c6.3,1.4,11.8,3.1,16.4,5.1v24.6h-2.7c-4-3.4-8.8-6.3-14.6-8.6c-5.7-2.3-11.6-3.5-17.6-3.5
	c-2.1,0-4.2,0.2-6.3,0.5c-2.1,0.3-4.1,0.9-6,1.8c-1.7,0.7-3.2,1.8-4.4,3.3c-1.2,1.5-1.8,3.1-1.8,5c0,2.8,1,5,3,6.5
	c2,1.5,5.7,2.9,11.2,4.1c3.6,0.8,7.1,1.6,10.4,2.4c3.3,0.8,6.9,1.8,10.7,3.2c7.5,2.7,13.1,6.3,16.7,10.9c3.6,4.6,5.4,10.6,5.4,17.9
	C1008.2-682.7,1004.1-674.1,995.9-667.6z M878-744.4c-2.6-1.1-5.2-1.8-7.7-1.9c-2.5-0.1-5.8-0.2-10-0.2h-4.4v31.9h7.3
	c4.3,0,7.9-0.3,10.7-0.9c2.8-0.6,5.1-1.7,7-3.4c1.6-1.5,2.8-3.3,3.5-5.5c0.7-2.1,1.1-4.7,1.1-7.8c0-3-0.8-5.6-2.3-7.8
	C881.7-742,880-743.5,878-744.4z M753.2-700.8h24.2L765.3-739L753.2-700.8z M765.3-739l-12.1,38.2h24.2L765.3-739z M883.2-739.8
	c-1.5-2.2-3.2-3.7-5.2-4.5c-2.6-1.1-5.2-1.8-7.7-1.9c-2.5-0.1-5.8-0.2-10-0.2h-4.4v31.9h7.3c4.3,0,7.9-0.3,10.7-0.9
	c2.8-0.6,5.1-1.7,7-3.4c1.6-1.5,2.8-3.3,3.5-5.5c0.7-2.1,1.1-4.7,1.1-7.8C885.4-735.1,884.7-737.6,883.2-739.8z M1178.3-739
	l-12.1,38.2h24.2L1178.3-739z M883.2-739.8c-1.5-2.2-3.2-3.7-5.2-4.5c-2.6-1.1-5.2-1.8-7.7-1.9c-2.5-0.1-5.8-0.2-10-0.2h-4.4v31.9
	h7.3c4.3,0,7.9-0.3,10.7-0.9c2.8-0.6,5.1-1.7,7-3.4c1.6-1.5,2.8-3.3,3.5-5.5c0.7-2.1,1.1-4.7,1.1-7.8
	C885.4-735.1,884.7-737.6,883.2-739.8z M765.3-739l-12.1,38.2h24.2L765.3-739z M765.3-739l-12.1,38.2h24.2L765.3-739z M883.2-739.8
	c-1.5-2.2-3.2-3.7-5.2-4.5c-2.6-1.1-5.2-1.8-7.7-1.9c-2.5-0.1-5.8-0.2-10-0.2h-4.4v31.9h7.3c4.3,0,7.9-0.3,10.7-0.9
	c2.8-0.6,5.1-1.7,7-3.4c1.6-1.5,2.8-3.3,3.5-5.5c0.7-2.1,1.1-4.7,1.1-7.8C885.4-735.1,884.7-737.6,883.2-739.8z M883.2-739.8
	c-1.5-2.2-3.2-3.7-5.2-4.5c-2.6-1.1-5.2-1.8-7.7-1.9c-2.5-0.1-5.8-0.2-10-0.2h-4.4v31.9h7.3c4.3,0,7.9-0.3,10.7-0.9
	c2.8-0.6,5.1-1.7,7-3.4c1.6-1.5,2.8-3.3,3.5-5.5c0.7-2.1,1.1-4.7,1.1-7.8C885.4-735.1,884.7-737.6,883.2-739.8z M765.3-739
	l-12.1,38.2h24.2L765.3-739z M765.3-739l-12.1,38.2h24.2L765.3-739z M765.3-739l-12.1,38.2h24.2L765.3-739z"/>
</svg>
