<?xml version="1.0" encoding="utf-8"?>
<!-- Generator: Adobe Illustrator 23.0.1, SVG Export Plug-In . SVG Version: 6.00 Build 0)  -->
<svg version="1.1" id="Layer_1" xmlns="http://www.w3.org/2000/svg" xmlns:xlink="http://www.w3.org/1999/xlink" x="0px" y="0px"
	 viewBox="0 0 1920 1080" style="enable-background:new 0 0 1920 1080;" xml:space="preserve">
<style type="text/css">
	.st0{opacity:0.54;}
	.st1{opacity:0.29;}
	.st2{opacity:0.5;}
	.st3{fill:#FFFFFF;}
	.st4{opacity:0.56;}
	.st5{fill:#7F7F7F;}
</style>
<g class="st0">
	<path d="M1675,1049.8c0.9,6,1.6,10.2,2.2,14.4c-0.6,0.2-1.2,0.4-1.8,0.5c-2.1-3.4-4.2-6.8-6.3-10.3c-2.5-4.2-5.4-5.7-10.7-4.4
		c-19.1,4.8-36.8,12.6-52.7,24.4c-3.7,2.8-8.1,4.6-13.2,7.4c4.4-18.7,27.2-34.4,50.1-36.5c-11.1-4.7-22.6-3.8-33.7-0.2
		c-10.8,3.6-21.2,8.6-32.1,13c1.9-7.3,6.8-12.6,13.7-16c10.2-5,21.1-5.6,32.2-4.9c1.8,0.1,3.6,0.3,5.6-0.3c-3.4-1-6.7-2.1-10.1-3.1
		c0-0.2,0.1-0.5,0.1-0.7c1.9-0.1,3.8-0.2,5.7-0.4c-9.7-4-20-5.1-30-3.4c-14.1,2.4-28,5.8-41.8,9.4c-14.3,3.8-28.4,8.3-43.6,8
		c1.1-0.4,2.3-0.7,3.4-1.1c12.3-5.1,24.8-9.7,36.8-15.4c15-7,29.8-14.3,46.7-14.9c7.7-0.2,15.5,0,22.6,0c0.2,0.4-0.2-0.4-1.1-1.7
		c5.5,1.9,10.3,3.5,15.1,5.2c0.3-0.5,0.6-1,0.9-1.5c-5.1-3.3-9.9-7.2-15.3-9.9c-10.8-5.3-22.7-6.4-34.6-6.7
		c-14.7-0.3-29.3-0.5-44-0.8c-1.3,0-2.6-0.3-4.8-0.6c9.8-2.5,18.7-4.9,27.6-7c8.7-2.1,17.5-4.5,26.3-5.6
		c13.4-1.6,25.3,2.8,35.2,12.3c0.5,0.5,1.1,1,2,1.1c-4.3-6.8-9.9-12.3-17.5-15.3c-10.7-4.3-21.6-8-32.2-12.3
		c-5.9-2.4-11.6-5.5-16.9-9.1c10.3,1.3,20.7,2.7,31,3.8c16.8,1.9,29,10.8,38.2,24.5c2.7,4.1,5.7,8.1,8.5,12.1
		c0.4-0.2,0.9-0.5,1.3-0.7c-2.3-5.1-4.2-10.4-6.9-15.2c-4.5-8-9.4-15.7-14.3-23.5c-11.4-18.1-15.4-32.9-14.5-56
		c1.2,2.2,2,3.3,2.4,4.4c4,9.9,7.6,19.9,12,29.6c3.7,8.3,7.8,16.6,12.5,24.4c9.3,15.1,15.6,31.2,18.5,48.7c0.2,1.2,0.6,2.4,1.4,3.4
		c0.5-23.4-5-45.6-12.9-67.4c12.8,19.1,15.7,41.2,19.9,63.3c2.1-17.6,4.2-35.3,6.4-52.9c0.7-5.9,1.3-11.9,2.5-17.8
		c0.5-2.6,2.2-5,3.9-7.4c2.4,27.9-1.4,55.3-4.1,82.9c2-5.7,3.5-11.6,6-17.1c4.3-9.5,8.9-19,14-28.1c1.9-3.5,5.5-6.3,8.8-8.6
		c1.9-1.3,4.8-1.1,7.6-0.9c-16.6,11.3-22,29.3-28.9,46.3c-2,4.9-3.9,9.8-4.8,15.3c2.7-4.4,5.8-8.6,8.1-13.2c4-7.9,7.5-16,11.3-23.9
		c7.3-15.1,19-24.5,35.8-27.5c10.6-1.9,21.1-4.3,32.3-6.6c-1.5,2.1-2.7,4.5-4.6,6c-4.9,3.9-10,7.7-15.4,11c-4.1,2.5-8.5,4.7-13,6.4
		c-16.4,6.2-27.7,17.3-34.7,33.3c-2.7,6.2-6.4,12-9.2,18.4c3-3.2,5.9-6.4,9-9.5c6.9-6.8,13.8-13.5,20.8-20.1c2-1.9,4.6-3.4,7-4.7
		c14.1-7.5,28.8-2.1,35.5,13.3c-14.4-4.3-28.7-9.5-43.3-2.3c-7.9,3.9-16.5,14.4-22.2,27.8c1.2-1.2,2.4-2.4,3.6-3.5
		c5.1-4.2,10-8.9,15.6-12.4c7.9-4.9,16.3-4.5,24.1,0.7c10.8,7.3,15.6,18.1,17.8,31.8c-2.5-1.7-3.9-2.8-5.3-3.8
		c-15.1-10-30.8-14-47.9-4.8c-4,2.2-8.6,3.2-13.3,4.8c5.8,4.2,10.9,8.7,9.8,17.3C1684.7,1060.5,1680.3,1055.6,1675,1049.8z"/>
</g>
<g class="st1">
	<path d="M371.1,829.9c0.7-2.8,1.9-5.6,2-8.4c0.3-17,7.1-31.3,18.4-43.6c2.6-2.8,6.3-4.8,10.4-3.1c4.6,1.9,7.6,5.6,8.3,10.5
		c1.6,11-2.8,20.4-9.2,28.7c-5.9,7.6-12.7,14.3-23.5,15.4c-2.1,0.2-5.1,6.6-5.1,10.2c-0.2,9.9,1,19.8,1.7,29.8
		c3.8-1.9,6.7-3.6,6.7-9.5c0-10.9,12.5-23,23.4-23.9c9-0.8,13.5,5.2,9.3,13.2c-6,11.4-14.4,19.7-28.7,19.9c-3.1,0-6.6,3.5-9,6.3
		c-5.4,6.3-6.6,14.3-7.8,22.6c5.2-2.9,9.8-6.2,14.9-8.2c7.2-2.9,14.3-4.5,18.7-12.8c3.7-6.9,11.2-11.3,19.7-12.4
		c4.2-0.6,8.1-0.2,10.6,3.9c2.4,4,1,7.7-1.4,11.2c-5.7,8.3-18.6,12.8-28.4,10.3c-1.8-0.5-4-0.5-5.7,0.1c-6.6,2.4-13.2,4.6-19.4,7.7
		c-7.1,3.5-11.7,9.3-12.1,17.6c-0.4,6.8-0.6,13.6-1.2,20.4c-0.1,1.2-1.1,2.4-1.7,3.6c-0.9-1.1-2.5-2.3-2.5-3.4
		c0.2-7.5,0.3-15,1.2-22.4c0.6-5.1-1.3-8.1-5.5-9.8c-3.2-1.3-6.6-2.3-10-2.9c-1.5-0.3-3.6,0.5-4.8,1.5c-7.9,6.8-17,7.3-26.3,4.5
		c-2.7-0.8-5.6-3.8-6.6-6.4c-1.4-3.8,0.8-7.4,4.3-9.8c7.3-4.9,24.7-5,29.8,3.4c0.5,0.8,1.4,1.6,2.2,1.8c4.6,1.2,9.2,2.2,14.5,2.6
		c-2.9-2.6-5.5-5.6-8.7-7.7c-7.3-4.9-14.9-9.4-22.5-13.9c-0.8-0.5-2.1-0.5-3.1-0.3c-11.4,2.7-26.4-5.7-29.1-17.1
		c-0.7-2.9,0-7.6,2-9.4c2-1.9,6.6-2.5,9.5-1.7c9.2,2.5,14,10.1,18.8,17.6c2.3,3.7,5.4,7,8.7,9.9c2.8,2.5,6.6,3.9,9.7,6
		c6.4,4.3,12.8,8.7,19.2,13.1c0.1-5.4-1.2-11-6.1-15.7c-6.3,4.1-11.6,1.3-16.5-3.1c-10-8.9-15.1-20.3-15.7-33.5
		c-0.5-10.7,7.1-15.4,16.9-11c11.7,5.2,21.4,22.3,19,35.7c-1.2,6.9,1.3,11.3,6.1,16.9c0.9-7.6,2-14.2,2.5-20.9c0.3-5-0.4-10-0.3-15
		c0.2-12.9-5.7-21.6-17.8-25.8c-2.1-0.7-4.6-0.6-6.9-0.8c-2-0.2-4.1,0.2-5.9-0.3c-9.2-2.9-15.3-9.2-18.3-18.3
		c-1.6-4.8,0.8-7.5,5.8-7c11,1.1,19.4,7.9,22.4,18.3c0.3,1.2,1.1,2.5,2.1,3.1c4,2.3,8.1,4.4,13.2,7.2c-0.8-2.6-1.3-4.1-1.8-5.6
		c-3.4-9.9-6.8-19.8-10.3-29.7c-1.8-4.9-6.4-4.7-10.4-4.6c-7.4,0.1-13.7-4.8-14.7-12c-0.7-4.7,2-7.4,6.7-6.5
		c5.4,0.9,8.5,4.6,9.6,9.6c0.9,4.4,3.5,5.6,7.9,5.6c0-3.6,0.2-7.1,0-10.5c-0.4-4.9-3.5-7.8-8.4-9c-5.1-1.2-6.7-5.6-7.9-10
		c-1.1-4.2-0.5-8,3-10.9c2.5-2.2,5.6-1.7,6.9,0.9c2.1,4,3.3,8.5,4.7,12.8c0.8,2.5,1.4,5.1,2.1,7.6c0.4-0.1,0.9-0.1,1.3-0.2
		c2.6-4.4,5.4-8.7,7.7-13.2c0.6-1.1-0.1-2.8-0.3-4.2c-1.8-11.1,0.5-20.9,8.8-28.8c3.2-3,7.6-6.1,11.6-3.4c2.9,2,5.1,6.6,5.7,10.3
		c1.6,10.3-9.7,25.6-19.9,28c-0.9,0.2-2,0.6-2.5,1.3c-7.6,9.7-9.5,20.8-7.8,33.7c4.4-4.9,9.5-7.3,10.4-14.5c1-8.1,6.8-14.3,13.6-19
		c3-2.1,6.5-3.1,9.7-0.4c3.4,2.7,4.2,6.4,2.6,10.4c-3.2,7.7-8.1,14.2-15.1,18.8c-1.7,1.1-4.1,1.8-6.1,1.6c-8-0.6-15.2,7.8-12.5,15.6
		c3.6,10.5,7.9,20.7,11.9,31.1C370,829.7,370.5,829.8,371.1,829.9z"/>
</g>
<g class="st2">
	<path d="M1446.8,940.8c-3.6,10.4-1.9,19.7,6.3,28.6c0.6-2.4,2-4.6,1.5-6.3c-3-10.2,0.4-18.7,7.3-26.5c-1.1,3.3-1.9,6.7-3.3,9.8
		c-1.8,4.2-2.2,8.1-1,12.6c0.7,2.7,0,5.8-0.3,8.7c-0.6,4.4-1.4,8.7-2.2,13.4c11-1.5,18.7-14.4,15.3-24.3c-2.1-6-1-11,3.1-17.3
		c0.1,6.8-3.8,12.6,1.3,18.1c2.2-3.9,4.3-7.5,6.4-11.2c0.5,0.2,0.9,0.4,1.4,0.7c-2,5.2-3.8,10.5-5.9,15.6c-1.7,4.1-4,8-5.5,12.2
		c-1.4,4-3.2,7.1-7.6,8.5c-5.5,1.7-3.9,6.9-4.2,11.7c1.9-1.5,3.8-3.1,5.8-4.5c4.6-3.1,9.1-6.8,14.1-9.1c8.4-4,11.6-9.7,11.8-19
		c0.1-5.3,3.1-10.4,4.8-15.6c0.5,0.1,0.9,0.3,1.4,0.4c-1,7.7-2.1,15.4-3.1,23.2c0.6,0.3,1.1,0.6,1.7,1c3.5-2.4,7-4.9,10.5-7.3
		c0.4,0.5,0.9,1,1.3,1.5c-4.2,3.7-8.3,7.4-12.5,10.9c-1.8,1.5-3.8,2.8-5.8,3.9c-3.8,2.2-7.6,4.4-11.6,6.3c-2.9,1.4-5.9,2.5-8.7,4.4
		c5.1,4,12.4,1.8,16.6,9.2c-2.9-0.9-4.7-1.2-6.3-2c-7.9-4.2-14.9-1-21.7,2.6c-1.6,0.9-3.1,3.4-3.2,5.3c-0.6,6.8-4.4,11.6-8.3,16.7
		c-2.2,2.8-3.5,6.3-5.6,10.2c5.4,0,9.2-0.1,12.9,0c4.2,0.1,5.7-2.2,4.2-5.6c-4-9.3,0.2-16.6,5.9-23.5c-1.3,2.5-2.9,5-4,7.6
		c-1,2.4-1.5,5-2.3,7.5c0.5,0.2,0.9,0.4,1.4,0.6c1.9-2.1,3.9-4.2,5.8-6.3c-0.4,4.4-6.1,7.1-3.2,12.3c5.6-5,13.3-8.4,11.5-18.4
		c0.5,0.2,1,0.4,1.5,0.6c-0.3,4.2-0.6,8.4-1,12.6c0.5,0.3,0.9,0.6,1.4,0.9c1.3-1.7,3.3-3.2,3.9-5.2c2-7.1,5.8-12.9,11.1-18
		c2.5-2.5,3.6-6.3,5.6-9.4c1.5-2.3,3.4-4.3,5.1-6.4c0.4,0.2,0.7,0.4,1.1,0.6c-0.3,1.1-0.5,2.3-0.9,3.4c-1.3,3.6-2.3,7.4-4.3,10.6
		c-1.7,2.7-4.7,4.6-6.9,7.1c-2.4,2.7-4.6,5.5-6.9,8.3c0.5,0.7,1,1.4,1.5,2c2.1-0.8,4.9-1,6.2-2.5c6.6-7.4,12.9-15.1,19-23
		c1.1-1.5,1.2-4.2,0.9-6.3c-1-6,1.3-10.3,6.1-13.7c2.4-1.7,4.5-3.6,6.8-5.4c0.3,0.3,0.6,0.7,1,1c-1.7,1.8-3.2,3.9-5.2,5.4
		c-6,4.4-7.6,8-4.7,14.9c2.1,5,0.7,8-3.3,11.1c-2.9,2.2-5.2,5.1-7.4,8c-0.8,1.1-0.5,3.1-0.7,4.6c1.4,0,2.7,0,4.1-0.1
		c1,0,2.1-0.1,3.1-0.2c0.1,0.4,0.3,0.9,0.4,1.3c-3.4,1.3-7,2.4-10.3,4c-4.4,2.2-8.5,5-12.8,7.3c-1.6,0.8-3.5,1.1-5.2,1.5
		c-0.4,0.1-1.2-0.5-1.4-0.3c-4.2,3.9-11.9,2.4-14.2,9.1c-1.4,3.8-3.7,5.6-8,6.3c-4.8,0.8-9.4,3-14,5c-1.2,0.5-1.8,2.5-2.6,3.8
		c1.6,0.6,3.6,2.1,4.6,1.6c7-3.1,15.1-5.3,20.3-10.4c8.4-8.2,18.1-11.2,28.9-14c6-1.6,11.6-6.3,16.5-10.6
		c7.2-6.1,12.9-13.5,13.4-23.7c0.2-2.7,1.6-5.4,2.5-8c0.7,0.2,1.4,0.4,2.1,0.6c-1.6,7-3.3,14-5.2,22.2c9-6.1,8.4-16.8,14.4-23.2
		c0.6,0.2,1.1,0.4,1.7,0.6c-0.9,3.2-1.2,6.6-2.7,9.4c-5,9.6-11.9,17.6-21.5,23c-4.1,2.3-8.8,4-10.8,10.9c11-5,20.4-4.2,28,4.1
		c-7.4-1.3-14.4-7.4-23-3.9c-7.3,2.9-16-2-23.2,3.1c1.2,4,4.1,4.4,6.9,3.5c6.8-2.2,10.5,1.5,13.6,6.6c-1.4-1.1-2.7-2.5-4.3-3.1
		c-2-0.9-4.7-2.2-6.4-1.5c-5.3,2-10,1-15.1-0.5c-6.7-2-10.7,0.7-12.4,7.6c9.6,3.5,20.8,0.3,29.5,7.5c-7.7-0.3-15.5,1.8-22.7-2.8
		c-1.1-0.7-2.9-0.7-4.3-0.6c-5.4,0.7-10.8,1.5-16.1,2.6c-1.4,0.3-2.7,1.6-3.9,2.7c-0.2,0.2,0.3,1.7,0.5,1.7c1.4,0,2.9,0.1,4.1-0.4
		c7-2.6,13.6,0.2,15.5,7c-1-0.1-2.3,0.2-2.8-0.2c-6.2-6.8-14-3-21.1-3.1c-5.6-0.1-7.3,2.3-7.1,7.9c0.2,3.6,1,7.3,1.3,10.9
		c0.2,2.6,0.4,5.5-0.5,7.9c-0.7,1.8-3,3.8-4.9,4.1c-1.6,0.3-4.1-1.4-5.1-2.9c-1.6-2.4-2.7-5.4-3.2-8.3c-2.3-12.7-9.8-20.8-21.8-25
		c-2.7-0.9-5.3-2-7.9-3.1c-10.7-4.3-19.8,0-28.4,5.7c-4.8,3.2-8.7,4-12.4,1c6.2-2.9,12.4-5.8,18.7-8.7c-0.2-0.6-0.4-1.1-0.6-1.7
		c-16.9,2-33.8,3.9-50.6,5.9c0-0.4-0.1-0.8-0.1-1.2c3-0.5,6.1-0.7,9.1-1.5c1.5-0.4,3.4-1.8,3.8-3.1c0.3-0.9-1.3-3.1-2.5-3.8
		c-3.8-2.1-7.9-3.6-11.7-5.6c-2.4-1.2-4.5-2.8-6.8-4.2c0.2-0.6,0.5-1.1,0.7-1.7c2.3,0.5,4.7,0.7,6.8,1.6c3.3,1.5,6.6,3.3,9.5,5.5
		c12.4,9.3,25.7,6.5,39.2,3c-9.9-6.8-21.8-7.9-33-11c-11.1-3.1-22.2-6-33-8.9c3.4,0,7.4,0,12.9,0c-5.3-5.5-9.6-10-13.9-14.4
		c0.5-0.6,1.1-1.2,1.6-1.8c3,2.2,6.6,4,9,6.8c4.9,5.4,10.6,8.8,17.6,10.8c9.6,2.8,19,6.1,28.5,9.1c1.5,0.5,3.1,0.8,4.6,1.2
		c0.2-0.4,0.5-0.8,0.7-1.3c-2.5-1.8-4.8-3.8-7.4-5.2c-3.7-2-7.9-3-11.3-5.3c-3.3-2.2-7-4.9-8.8-8.3c-3.8-7.4-9.4-11.8-17.4-13.7
		c-3.9-0.9-7.9-1.9-11.3-3.8c-3.3-1.8-6.1-4.6-8.5-7.9c6.8,0,10.9,7.4,18.3,5.8c-3.1-3.8-6-7.4-8.9-10.9c0.5-0.5,1-1.1,1.5-1.6
		c2.1,1.6,4.4,3,6.3,4.7c4.2,3.7,8.4,7.5,12.4,11.6c2.4,2.5,4.8,5.3,6.2,8.4c4,8.9,10.8,14.1,19.9,16.9c3.4,1.1,6.8,2.3,10.2,3.5
		c0.3-0.4,0.6-0.8,1-1.1c-2.9-3.3-5.7-6.6-8.7-9.8c-5.7-5.9-11.3-11.7-17.2-17.3c-3.7-3.5-7.9-6.6-11.8-9.9c-4-3.3-8.3-6.2-11.9-9.9
		c-2.3-2.4-3.4-5.9-4.2-9.6c7.5,5.4,11.5,14.6,21.6,17.2c-1.1-4.5-2.1-8.7-3.2-12.9c0.4-0.1,0.8-0.2,1.2-0.3
		c1.1,3.1,2.4,6.1,3.1,9.3c1.2,5,3.4,9.1,7.5,12.6c2.5,2.2,3.9,5.7,6.2,8.3c1,1.1,2.9,1.5,4.4,2.2c0.2-1.7,0.9-3.4,0.6-5
		c-0.4-2.1-1.4-4.1-2.2-6.1c0.7-0.3,1.3-0.5,2-0.8c1.4,3.3,3.4,6.6,4,10c2.4,12.2,9.9,21.3,17.9,30.1c0.5,0.6,1.3,1,2.7,2.2
		c1.2-7.1,0.4-12.9-3.8-18.2c-3.1-3.9-5.7-8.2-7.6-12.8c4.3,5.5,8.7,11,13.9,17.7c0.4-3.1,0.6-4.9,0.8-6.7c0.5,0,0.9,0,1.4,0
		c0,2.6,0.2,5.2,0,7.7c-0.8,8.2,4,14.9,13.4,16.1c-2.4-8.9-2.4-17.9-8.6-25.1c-1.8-2.1-4.1-3.9-6-6c-6.1-6.5-12-13.3-18.4-19.5
		c-2.5-2.4-6-4.3-9.3-5.2c-7-1.9-11.5-5.5-14.5-12.3c-2-4.8-6.2-8.7-9.9-13.6c6.8,2.1,10.9,6.5,13.9,11.9c3,5.3,7.5,7.1,13.5,7.5
		c0.5-11.4-12.2-15.6-13.5-25.7c7.2,6,16.4,9.9,19.4,20.2c1.8,6.2,4.4,12.2,7.3,18c1.3,2.6,4.3,4.4,7.2,6c1.9-12,2.2-23.3-7.5-31.7
		c-5.8-5.1-8.9-10.9-7.9-19.1c1.2,2.3,2.6,4.6,3.6,7.1c1.4,3.3,2,8.1,6.9,7c4.6-1,3.1-5.6,3.1-8.9c0-2.7-0.6-5.4-0.9-8.1
		c0.4-0.1,0.8-0.2,1.2-0.3c1.4,5.7,3.3,11.4,4,17.2c1.1,10.4,1.6,20.9,1.9,31.3c0.2,6.8,3,12.3,8.2,16.4c6.7,5.3,10.8,12,12.9,20.2
		c0.8,3.3,2.5,6.6,4.4,9.5c0.9,1.4,3.1,2,4.8,2.9c0.8-1.9,2.4-3.9,2.1-5.5c-0.6-3.4-1.8-6.7-3.5-9.7c-1.7-3.2-4-6.2-6.5-8.8
		c-6-6.2-8.5-13.5-7.6-21.9c1-10.4-1.2-20.1-5.7-29.5c-3.7-7.7-5.7-15.9-4.3-24.6c0.5-0.1,0.9-0.2,1.4-0.3c0.8,4.6,1.5,9.2,2.4,13.7
		c0.6,3.2,1.2,6.5,2.4,9.6c0.6,1.4,2.6,2.2,3.9,3.3c1-1.4,2.7-2.6,3-4.1c1.2-6,2-12.2,3-18.2c0.1-0.8,0.3-1.6,0.5-2.3
		c0.4,0.1,0.9,0.1,1.3,0.2c-0.9,8.9-2.1,17.9-2.6,26.9c-0.6,9.9-0.7,19.8-0.6,29.7c0,1.6,2.5,3.2,3.8,4.8c1.3-1.5,3.3-2.8,3.9-4.5
		c1.3-3.8,1.9-7.9,3.1-11.8c0.5,6.4,1.7,12.7-1.6,18.8c-2.3,4.3,1.2,12.4,5.7,13.8c1.1,0.3,3.4-0.6,3.9-1.7c3.9-7.5,7-15.1,2.3-23.7
		c-3.4-6.2-3-12.9-1.3-19.5c1.2-4.8,0.7-8.4-4.4-10.6c-1.5-0.7-3.4-2.5-3.5-3.8c-0.3-7.3-0.2-14.7-0.2-22.1c0.6,0,1.2,0,1.9-0.1
		c0.3,3.5,1,7,0.7,10.4c-0.9,8.4,1.6,14.4,10.6,16.9c4.4-8.1-3.7-17,0.7-25.8c1.2,7.6,2.7,14.7,3.4,21.8c0.3,3-1.1,6.1-1.6,9.2
		c-1,5.5-2.3,11.1-2.6,16.6c-0.3,3.6,1.2,7.2,5.5,9.4c1.2-3.6,2.2-6.9,3.5-10.9c3,9.4,1.6,14.7-4.3,20c-1.5,1.3-2.7,3.5-3.1,5.4
		c-0.7,4.1-1.1,8.3-1,12.4c0,1.7,1.5,3.4,2.3,5.1c1.5-0.9,3.2-1.7,4.6-2.7c9.8-6.7,10.4-18,11.3-27.8c0.7-8.5-2-17.8-5.1-26.1
		C1441.5,957.7,1442.1,949.4,1446.8,940.8z"/>
</g>
<g class="st1">
	<path d="M1624.9,741c-2.9-5.4-6-10.8-8.7-16.3c-1.8-3.7-3.5-7.4-4.7-11.3c-0.3-1,1.1-2.5,1.7-3.7c1.1,0.6,2.9,0.9,3.3,1.8
		c2,4.5,3.9,9.1,5.5,13.7c1.6,4.8,2.9,9.7,4.6,15.4c2.1-5.1,3.8-9.1,5.4-13.1c0.7,0.1,1.5,0.2,2.2,0.2c0.4,2.6,1.4,5.3,1,7.7
		c-0.7,4.2-1.8,8.6-3.6,12.4c-2.5,5.3-1.5,10.3-0.1,16.1c1.8-2.9,2.9-5.6,4.7-7.6c1.3-1.3,3.6-1.5,5.5-2.2c0.3,1.9,1.5,4.3,0.8,5.7
		c-2,4.2-4.3,8.3-7.4,11.8c-3.4,3.8-3.1,7.6-2,12.9c1.8-2.7,2.9-4.9,4.5-6.6c0.9-1,2.4-1.4,3.6-2c0.7,1.4,2.2,3.1,1.9,4.2
		c-0.8,2.8-1.8,6.1-3.9,7.9c-7.5,6.4-6.6,14.5-5.8,23.9c2.2-4.1,3.6-7.6,5.7-10.6c1-1.3,3.4-1.6,5.2-2.4c0.1,2,1.1,4.4,0.2,5.8
		c-2,3.4-4.4,6.8-7.4,9.3c-4,3.2-4.9,6.8-3.6,11.6c2.1-1.5,4-3.2,6.2-4.3c0.9-0.5,2.9-0.4,3.6,0.3c0.6,0.6,0.6,2.6,0.2,3.5
		c-1.3,2.7-2.6,5.6-4.7,7.6c-6.9,6.4-4.5,13.7-3,22.3c2-4,3.3-7.3,5.2-10.1c0.9-1.4,3.1-1.9,4.7-2.9c0.3,1.8,1.2,3.9,0.6,5.4
		c-1.2,3.2-3,6.3-4.9,9.2c-4.9,7.7-5.3,11.8-1.4,20.6c1.4-4.1,2.8-8.1,4.3-12.2c0.1-0.3,0.8-0.5,2-1.2c0.2,2.1,0.8,3.8,0.5,5.4
		c-1,5.9-2.5,11.7-3.2,17.7c-0.4,3.7,0.5,7.5,0.8,11.3c0.5,0,1.1-0.1,1.6-0.1c0.7-1.8,1.1-3.7,2.1-5.4c0.6-1,1.9-1.6,2.8-2.4
		c0.7,1,2.1,2.2,2,3.1c-0.5,3.6-1.2,7.3-2.6,10.5c-1.4,3.4-1.5,6.2,0.1,9.5c2,4.2,3.8,8.5,5.6,12.8c0.6,1.4,1,2.9,1.5,4.3
		c-0.4,0.2-0.8,0.4-1.3,0.7c-0.7-0.9-1.6-1.7-2.1-2.7c-2.3-5.2-5.2-10.2-6.7-15.6c-1.8-6.4-6-8.1-12-8.4c-1.1,4.4-0.6,8.2,2.2,12.1
		c3,4.1,5.1,8.9,7.6,13.4c-0.7,0.4-1.3,0.7-2,1.1c-0.8-1.2-1.7-2.4-2.2-3.7c-3.2-7.2-6.9-13.5-16-14.6c-3.4-0.4-6.6-3-9.9-4.5
		c0.2-0.6,0.4-1.3,0.6-1.9c3.3,0.3,6.6,0.6,10.5,0.9c-3.4-3.8-6.5-7.5-9.9-10.8c-0.9-0.8-2.7-0.7-4.2-0.9c-4.8-0.4-9.7-0.3-14.3-1.3
		c-1.6-0.3-2.8-3.1-4.1-4.7c1.9-0.7,3.9-2.1,5.6-1.9c3.9,0.6,7.6,2,12.3,3.3c-4.8-6-7.5-12.5-16-12.8c-4.5-0.2-9.5-1.8-11.6-8.1
		c4.2,0,7.6,0,11.6,0c-2.6-4.4-5-8.9-8-12.9c-0.9-1.2-3.6-1.3-5.5-1.7c-4.7-1-9.5-1.8-11.7-8.9c4.7,0.7,8.5,1.2,12.6,1.8
		c-1.7-5.3-2.5-10.8-9.4-12.9c-5.1-1.5-10.2-3.9-13.2-9.5c5.5-2.9,10.1-1.2,15.1,1.6c-1.1-6.4-1-11.8-8.3-14.3
		c-3.7-1.3-6.4-5.7-9.4-8.9c-0.5-0.6-0.5-2.5,0.1-3.1c0.6-0.6,2.4-0.8,3.1-0.3c3.4,2,6.6,4.3,10.8,7.1c-1.1-5.7-1.9-10.9-3.1-16.1
		c-0.8-3.4-2.4-6.6-3.1-10c-0.3-1.3,1.1-3,1.7-4.5c1.6,0.9,4.3,1.4,4.6,2.7c1,3.6,1.3,7.5,1.5,11.3c0.2,4.4,0.1,8.7,0.1,13.8
		c3.1-3.7,5.4-6.6,7.8-9.5c0.6,0.3,1.3,0.6,1.9,0.9c0,2.2,0.5,4.5-0.1,6.5c-1.2,4.5-2.5,9-4.6,13.2c-2.2,4.3-1.1,7.9,1,12.3
		c0.7-1.9,1-3.5,1.8-4.6c1-1.3,2.4-2.2,3.7-3.2c0.9,1.5,2.5,3,2.4,4.5c-0.2,3.8-0.7,7.7-2,11.3c-2.5,6.7,0.5,11.8,4.1,17.6
		c0.6-4.6,1.2-8.5,1.7-12.4c0.6-0.1,1.2-0.1,1.8-0.2c0.6,1.5,1.6,2.9,1.8,4.5c0.3,2.3,0.7,4.9-0.1,6.9c-3.9,9.5,3.1,14.6,8,20.8
		c0-5,0-9.9,0-14.9c0.6-0.1,1.1-0.2,1.7-0.3c0.8,1.8,2,3.6,2.4,5.5c0.6,3.1,1.4,6.4,0.9,9.4c-1.2,8,3.1,13.1,8.7,18.3
		c-0.3-3.9-0.7-7.4-0.7-10.9c0-1.4,1.3-2.8,2-4.1c1.5,1.1,4,2,4.2,3.3c0.7,3.9,0.7,7.9,0.4,11.9c-0.6,7.8-0.6,8.1,7,12.8
		c-1.3-3.2-2.6-6.3-4.1-9.8c3.1-2.2,5.8-3.3,8.8,1.1c1.5,2.1,4.6,3,7.5,4.1c-2-6.9-1.3-14.6-9.4-18.8c-4.1-2.2-7.1-6.5-10.1-10.6
		c6.3-0.7,9.2,4.2,14,8.2c-1.4-8-2.5-15-4-21.8c-0.3-1.2-2.4-2-3.7-3c-2.6-1.8-5.4-3.3-7.7-5.4c-1.1-1-1.1-3.1-1.5-4.8
		c0.5-0.4,0.9-0.8,1.4-1.3c3.3,2.1,6.6,4.3,9.8,6.4c2.2-7,0.2-13.6-5.4-17.8c-3.6-2.7-7-5.6-6.9-12.3c4.3,3.4,7.8,6.1,11.8,9.2
		c0.2-5.8,1.7-10.9-3.8-15.4c-4.7-3.8-8.5-8.8-9.8-15.9c7.8,0,9.4,6.6,13.9,11.5c0-4.9,0.3-8.7-0.1-12.3c-0.1-1.3-1.9-2.4-3.1-3.5
		c-3.1-2.8-6.6-5.1-9.2-8.2c-1.5-1.7-1.6-4.6-2.3-6.9c0.7-0.4,1.3-0.8,2-1.2c3.9,4,7.9,8,12.8,12.9c-0.5-6.7-0.5-12.2-1.4-17.7
		c-0.2-1.4-2.8-2.5-4.4-3.5c-4.1-2.6-8.1-5.2-7.6-12c3.6,2.1,7.3,4.2,11.1,6.5c-0.5-6.5-0.3-12.7-8.5-15.4c-3.7-1.3-6.6-4.9-9.4-8.4
		c5.8-2.5,8.9,2.4,13.2,3.9C1623.9,741.7,1624.4,741.3,1624.9,741z"/>
	<path d="M1715.9,853.4c4-1.4,7.6-2.7,11.2-4c0.4,0.7,0.7,1.3,1.1,2c-2.7,1.7-5.3,4.2-8.2,4.8c-8.7,1.9-11.3,9.2-15.5,15.6
		c4.3-1.4,8.2-2.7,12.1-4c0.2,0.5,0.4,1,0.6,1.5c-1.9,4-5.9,5.5-9.9,6c-7.9,0.8-10.7,6.7-14.2,12.4c4.5-1.1,8.7-2.1,13.8-3.3
		c-1.5,5.3-5,6.3-7.8,5.8c-10.6-1.6-12.4,6.8-16.5,12.9c4.5-1.1,8.8-2.2,13-3.2c0.4,0.8,0.8,1.6,1.1,2.4c-2.7,1.8-5.2,4.6-8.1,5.1
		c-10.6,1.6-13.5,8.8-14.6,17.9c-0.2,1.4-0.6,2.7-2.1,4.1c-0.2-0.9-0.8-1.9-0.6-2.8c0.5-3.1,0.8-6.4,1.9-9.3
		c3.1-8.2,6.7-16.1,3.6-25.3c-0.7-2,0.6-4.7,1-7.1c0.6-0.1,1.3-0.1,1.9-0.2c1,3.6,2,7.2,3.1,11.2c3.5-3.9,7.3-7.2,4.8-13.6
		c-1.6-4-2.4-8.7,2.3-12.7c0.2,4.9,0.4,9.7,0.7,15.8c4.6-6.2,10.7-10.3,8.4-18.9c-1.4-5.1-2.1-10.7,1-16.5
		c4.4,5.3,3.1,11.1,3.6,16.5c5.3-3.8,6.4-7.4,4.9-13.3c-0.9-3.7-1.1-7.5-1.7-11.3c0.7-0.2,1.5-0.3,2.2-0.5c1.1,3.6,2.2,7.2,3.6,11.7
		c2.5-6,6.4-10.6,3.3-17.4c-1.7-3.6-1.9-7.9-3-12.7c6.2,1.9,5.7,6.6,6.8,10.4c4.3-5,4.2-8.3,0.8-13.3c-2.1-3.1-3.2-6.7-4.8-10.1
		c0.7-0.4,1.4-0.8,2-1.2c2.2,3.3,4.5,6.6,7.3,10.7c1-4.7,2-8.5,2.4-12.4c0.1-1.3-1.3-2.8-2.4-4c-2.2-2.4-5-4.5-6.9-7.1
		c-1.1-1.4-0.9-3.8-1.3-5.7c0.6-0.4,1.2-0.7,1.8-1.1c3.3,2.7,6.5,5.4,9.8,8.1c2-8.6,1.6-9.7-5.1-14.3c-5.9-4-6.7-5.3-5.4-11.6
		c3.6,3.4,6.7,6.4,10.5,9.9c-0.4-6.2-1.7-11.2-5.2-15.6c-3.1-4-5.8-8.2-1-14c3,8.4,6,16.8,9.2,25.7c1.5-3.2,2.8-5.8,4-8.4
		c2.8,5.7,0.4,10.5-1.3,15.5c-1.3,3.7-1.7,7.8-2.8,12.8c3.8-2.4,6.2-3.9,8.5-5.4c0.5,0.4,0.9,0.8,1.4,1.1
		c-3.7,9.1-14.7,15.1-12,27.3c2.3-2.9,4.5-5.8,6.8-8.8c0.5,0.4,1,0.9,1.5,1.3c0.3,4.4-2.7,7.3-5.9,9.2c-6.3,3.8-7.4,10.1-9.7,16.9
		c4.4-3.1,8.2-5.8,12-8.5c0.4,0.4,0.7,0.8,1.1,1.2c-0.8,5.7-5.5,8.5-10.3,10.2C1719.3,844.3,1717.6,848.5,1715.9,853.4z"/>
	<path d="M1680,862.8c-2.5,3.7-4.2,6.9-6.6,9.7c-6.9,8.2-7.7,10.3-6.8,22.1c2.1-2.6,4-4.9,5.9-7.3c0.6,0.1,1.2,0.2,1.7,0.3
		c0,1.8,0.3,3.8-0.1,5.5c-0.4,1.5-1.4,3.1-2.6,4.2c-9.4,9.4-10.1,20.3-5.8,32.2c0.1,0.2-0.2,0.6-1,2.5c-1.5-3-3.4-5.1-3.4-7.1
		c0-6.8,0.3-13.6,1.2-20.3c0.5-4.2-0.2-7.3-3.3-10.2c-3.5-3.3-6.4-7.2-4.6-14c3.1,4.5,5.6,8,8.7,12.4c0.5-8,3.4-15.2-4.4-21
		c-3.8-2.9-6-7.4-5.7-13c7.1,0.5,7.8,7,11.5,11.8c0.4-7.3,2.6-13.5-3.9-18.6c-2.5-2-3.5-5.9-5.2-9c0.6-0.5,1.2-1,1.8-1.5
		c2.8,2.3,5.6,4.6,8.6,7c1.3-5,1.9-9.5-2-14.1c-3.3-3.8-6.3-8.2-5.8-14.2c5.7,0.8,6.3,6.2,9.5,10.3c0.5-6.9,2.2-12.7-4.2-17.3
		c-2.9-2.1-4.1-6.4-6-9.8c0.6-0.4,1.1-0.8,1.7-1.3c2.9,3.1,5.9,6.2,9.5,10c0.1-6.7,2.2-12.9-4.5-17.5c-3-2-5.3-5-3.8-10.7
		c3.1,3.2,5.5,5.8,7.9,8.4c0.4,0,0.7-0.1,1.1-0.1c-1-6.6-2-13.2-3.2-19.8c-0.5-2.9-1.7-5.8-1.9-8.7c-0.1-1.3,1.6-2.7,2.5-4.1
		c1,1.2,2.8,2.2,2.9,3.5c0.7,6.4,0.9,12.9,1.3,19.4c0.1,1.6,0.3,3.2,0.6,5.8c2.1-3.2,3.3-5.7,5.1-7.7c1-1.1,2.9-1.5,4.3-2.2
		c0.3,1.7,1.3,3.8,0.7,5c-1.9,3.6-4.3,7.1-6.9,10.3c-3.2,3.8-3.8,7.8-2.9,12.4c2.3-2.3,4.6-4.5,6.9-6.7c2.5,5.9-0.4,9.6-3.3,12.7
		c-4.3,4.5-5,9.5-4.3,15.2c2.6-2.9,5.2-5.7,7.8-8.5c0.6,0.4,1.1,0.8,1.7,1.2c0.2,4.9-2.5,8.9-5.7,12.2c-4.4,4.6-6,9.8-5.3,16.5
		c2.2-2.5,3.9-5,6.2-6.8c1.3-1,3.6-0.8,5.4-1.1c-0.2,1.7,0.1,3.8-0.8,5c-2.5,3.5-5.3,6.9-8.5,9.8c-4.1,3.7-4.2,8.2-3.8,13.8
		C1671.2,865.6,1673.2,861.3,1680,862.8z"/>
</g>
<path class="st3" d="M591.8,224.7c2,6.5,4.4,12.8,6,19.4c1.5,6.2,2.3,12.5,3.2,18.8c0.1,1,1.9,4.4-2.1,3.1c-1.7-0.4-3.5-0.8-5.2-1.1
	c-1.1,0.6-2.2,1.2-3.9,2.2c-0.9-7.1-6.5-12.4-6-19.9c-1.2-1-3-2.4-5.2-4.2c1.6-1.1,2.8-1.8,3.9-2.5c-0.8-0.1-1.8-0.3-3.7-0.6
	c2.3-1.4,3.9-2.3,5.8-3.5c-2.9-0.3-5.5-0.7-8.1-1c0.4-6.8,7.1-12.9,13.7-12.3C590.7,223.6,591.3,224.1,591.8,224.7z"/>
<g class="st1">
	<path d="M553.9,1080.2c-1.9-3.4-3.8-6.8-5.8-10.3c-0.4,1.2-0.7,2.8-1.5,4.1c-1.3,2-2.9,3.7-4.4,5.6c-1.8-1.8-4.3-3.3-5.3-5.5
		c-2.9-6.3-0.1-12,2.4-17.8c3.7-8.6,7.4-17.4,10.3-26.3c2.7-8.3,1.3-16.3-4.1-23.6c-3.4-4.6-6.4-9.6-9.5-14.5
		c-7.1-11.5-9.2-24-7-37.3c0.7-4.6,1.2-9.2,2.1-13.7c3.6-17.9,0.6-34.4-10.2-49.3c-7.9-10.9-10.3-22.9-7.2-36.1
		c1.7-7.3,2.7-14.7,5-22c0.6,19.6,4.7,38.3,10.5,56.7c3.8,12.1,7.7,24.2,10.5,36.6c2.2,9.8,3.8,20,3.9,30.1
		c0.1,13,3.7,24.4,10.4,35.3c6.7,10.8,13.4,21.7,12,35.3c3.4-5.7,2.6-11.6,0.4-17.2c-2-4.9-4.5-9.6-7.2-14.2
		c-9.1-15.7-11.6-32.5-8.3-50.1c3.2-17.8,3.6-35.1-3-52.4c-5.4-14-3.4-28.6,0.2-43c2.1-8.5,4.4-17,5.5-25.7c1.2-9,1.1-18.1,1.5-26.8
		c3.9,4.6,6.9,11,6.2,18.1c-0.9,8.9-2.2,17.9-5.1,26.3c-6.5,19-4.6,36.2,7.9,52.2c13.9,17.8,14.4,36.2,2.2,55.1
		c-6.5,10-6,20.6-1.5,31.1c2.7,6.4,5.8,12.6,8.7,18.8c6.7,14,6,27.7-1.7,41.1c-7,12.2-17.9,22.7-14.9,39.2
		C555.9,1080,554.9,1080.1,553.9,1080.2z M550.2,1056.1c0.7,0.4,1.5,0.8,2.2,1.3c4-7.4,8.1-14.7,12.1-22.1c-0.6-0.3-1.3-0.7-1.9-1
		C558.5,1041.5,554.3,1048.8,550.2,1056.1z"/>
	<path d="M483.1,941.4c10.1-2.3,16.6,1.2,17.6,9.9c0.7,5.8,0.2,12.1-1.2,17.8c-2.7,11.2-6.2,22.2-9.8,33.1
		c-2.4,7.3-1.2,13.2,3.6,19.2c10.5,13.2,20.6,26.9,30.9,40.4c-0.5-17.2,2-35-7.5-51.3c-6.8-11.7-9.3-23.8-5.1-37.1
		c6.8-21.7,1.5-40.4-14.4-56.4c-2.9-2.9-5.1-6.4-8-10c24.6,5.2,41.8,35,34,57.9c-1,3.1-2.1,6.1-3.3,9.1c-4.1,10.9-2.3,20.8,4.4,30.1
		c1.6,2.2,3.3,4.5,5,6.6c9.8,12.2,12.1,25.5,6.4,40.2c-3.7,9.5-7,19.1-3,29.7c-0.6,0.2-1.2,0.4-1.8,0.6c-1.8-2.8-3.7-5.5-5.3-7.9
		c-2.8,2.5-5.6,5.1-8.5,7.7c-0.6-0.1-1.3-0.3-1.9-0.4c2.9-15.1-6.5-23.5-15.9-31.9c-5.9-5.2-11.4-10.8-17.1-16.1
		c-8-7.5-10.6-16.8-7.3-27.1c3.2-10.1,7.2-19.9,11.2-29.7C490.9,964,492.8,952.6,483.1,941.4z"/>
	<path d="M584,884.7c3,8.1,5.2,16.6,9.2,24.2c8.2,15.7,8.6,31-0.9,46c-10.4,16.5-11.7,33.4-4.5,51.5c6,15.1,3.7,29.3-6.7,42.2
		c-7.3,9.2-14.9,18.4-13.9,31.6c-6.6,0.8-10-1.7-8.5-7.6c1.2-4.7,3.7-9.3,6.5-13.4c3-4.6,7.2-8.4,10.3-12.9
		c12.5-18.2,8.4-36.8,0.6-55.4c-1.1-2.5-2.4-5-3.5-7.5c-5.1-10.6-4.6-21.1,3.6-29.6c13.8-14.1,15.6-29.7,9.5-47.8
		c-2.3-6.8-2-14.6-2.8-21.9C583.2,884.4,583.6,884.5,584,884.7z"/>
	<path d="M568.6,1076.2c1.8-5,2.7-9.5,5-13.1c4.3-6.5,9.2-12.7,14.4-18.5c8.5-9.5,12.1-20.4,11.6-33c-0.3-7.4-0.6-14.8-0.3-22.1
		c0.4-10.1,3.5-19.2,11.4-27.8c0,2.8,0.1,4.3,0,5.7c-0.7,15-2.3,29.9-2,44.9c0.2,17.4-6.4,30.8-19.8,41.3c-3.3,2.6-6.7,5-9.4,8.1
		C575.8,1065.8,572.8,1070.6,568.6,1076.2z"/>
</g>
<path class="st1" d="M717,662.2c-4.7-1.1-8.7-1.9-12.9-2.9C707.9,656.2,709.9,656.6,717,662.2z"/>
<path d="M570,222.5C570,222.5,570,222.5,570,222.5c-0.3,0-0.6,0.1-1,0.1c0-0.5,0-1.1,0-1.6C569.3,221.5,569.6,222,570,222.5z"/>
<g class="st1">
	<path d="M244.9,946.5c-3.9,5.9-7.9,11.7-11.8,17.6c0.6,0.5,1.1,0.9,1.7,1.4c1.8-1.4,3.5-2.9,5.5-4c1-0.5,2.5-0.1,3.8-0.1
		c-0.3,1.3-0.1,2.9-0.8,3.7c-2.1,2.3-5.1,4-6.8,6.6c-2,2.9-2.9,6.5-4.3,9.8c0.9,0.6,1.8,1.2,2.7,1.8c1.6-2.7,3.1-5.4,4.7-8.2
		c0.8,0.2,1.6,0.4,2.5,0.6c3.2,5.8,6.3,11.5,9.5,17.3c0.5-0.2,1-0.3,1.5-0.5c-2-5.9-4-11.9-6.4-18.8c8.3,0.8,7.1,8.8,10.9,12.2
		c0.6-0.3,1.3-0.5,1.9-0.8c-3.1-7.9-6.2-15.8-9.3-23.7c0.7-0.4,1.4-0.8,2.1-1.2c2.6,3.1,5.2,6.2,7.8,9.3c1.9-10.2-10-16.8-8.3-28.4
		c-1-1.2-3-3.6-5-6c0.6-0.7,1.2-1.5,1.7-2.2c3.1,2,6.3,4,9.4,5.9c0.4-0.3,0.8-0.7,1.2-1c-5.2-5.6-10.4-11.2-15.6-16.9
		c0.7-0.7,1.4-1.4,2-2.1c4.3,2.9,8.6,5.9,12.9,8.8c0.4-0.3,0.8-0.5,1.2-0.8c-5.3-7.2-10.5-14.3-15.8-21.5c0.8-0.6,1.6-1.3,2.5-1.9
		c3.2,2.9,6.4,5.9,9.6,8.8c0.4-0.2,0.8-0.3,1.2-0.5c-2.6-5-5.3-10.1-8.5-16.3c2.9,0.2,4.8,0.3,7.2,0.5c-1-2.3-2.2-4.3-2.9-6.5
		c-0.9-2.7-1.5-5.5-2.2-8.3c2.3,1.3,4.6,2.5,8.1,4.4c-2.2-6.5-4-12.4-6.4-18.1c-1.7-4.2-2.3-7.1,4.2-6.3c-2.1-4.9-3.9-9.2-5.7-13.5
		c0.6-0.5,1.2-0.9,1.8-1.4c2,1.6,4,3.1,7.1,5.6c-1.5-6.9-2.8-12.9-4.1-18.8c0.8-0.4,1.6-0.7,2.4-1.1c1.9,3.3,3.8,6.6,6.4,11.2
		c-0.8-8.7-1.5-16.2-2.2-23.8c1-0.2,2-0.3,2.9-0.5c1.2,3.4,2.3,6.7,3.5,10.1c0.5,0,0.9-0.1,1.4-0.1c-1.1-7.9-2.2-15.9-3.3-23.8
		c0.7-0.2,1.5-0.4,2.2-0.6c1.4,2.3,2.8,4.6,3.4,5.7c1.6-5.1,3.5-11.1,5.4-17.1c0.8-0.1,1.7-0.2,2.5-0.3c1.3,4.5,2.6,9,3.8,13.5
		c0.4,0,0.8,0,1.1-0.1c0-2.2-0.2-4.4,0.1-6.6c0.2-1.9,1-3.7,1.5-5.6c1.1,1.8,2.5,3.5,3.2,5.4c0.7,2,0.6,4.2,0.8,6.6
		c4.7-0.3,9-0.6,13.3-0.9c0.2,0.8,0.4,1.6,0.6,2.4c-6.1,5.5-17.4,2-22.2,11.5c6.1-0.8,11.6-1.5,17.1-2.2c0.2,1.1,0.5,2.3,0.7,3.4
		c-7.8,2.2-15.6,4.4-23.4,6.6c0.1,0.6,0.2,1.1,0.4,1.7c4.5-0.8,9-1.6,13.5-2.4c0.3,0.8,0.6,1.5,0.8,2.3c-5.9,6-18.3,3.8-21.3,15.8
		c6.4-3,11.7-5.5,17-7.9c0.5,0.8,0.9,1.5,1.4,2.3c-6.2,8.3-21.2,8.6-21.7,22.4c4-2,7.8-3.9,11.6-5.8c0.5,0.6,1,1.2,1.5,1.9
		c-4,7.2-15.7,9.3-14.9,20.2c4.2-2.5,7.8-5,11.6-6.9c1.2-0.6,3,0.1,4.5,0.2c-0.9,1.4-1.4,3.5-2.7,4.1c-6.8,3.5-12,8.3-13.9,16
		c-0.2,0.9,0.1,1.9,0.2,3.3c5.8-1.6,8.3-10.5,17.2-7.2c-7.5,7.2-16.7,11.8-17,25c4.3-5.3,7.3-9.1,10.4-12.8c1,0.7,2,1.4,3,2.1
		c-4.4,7.7-8.9,15.5-13.3,23.2c0.7,0.5,1.5,1,2.2,1.5c2-2.1,3.9-4.4,6.1-6.2c1.1-0.9,2.8-0.9,4.3-1.2c-0.2,1.5,0,3.2-0.7,4.4
		c-3,5-6.4,9.8-9.4,14.7c-0.4,0.7-0.1,1.8,1.3,3.8c3-3.6,5.9-7.2,8.9-10.8c0.7,0.5,1.3,0.9,2,1.4c0.1,9.2-12.2,12.8-11.9,23.1
		c4.8-3.9,9-7.3,13.2-10.8c0.6,0.6,1.2,1.1,1.8,1.7c-2.8,9.6-16.4,13-16,26.4c4.2-4.6,7.6-8.3,11.7-12.8c0.6,2.5,1.3,3.8,1,4.2
		c-7.8,8.6-3,24.8-19.4,28.1c0.8,0.8,1.6,1.5,2.4,2.3c3.7-2.2,7.5-4.3,11.6-6.7c0.2,4,0.2,4-17.4,16.7c4.4-0.7,7.9-1.2,11.4-1.8
		c0.3,0.7,0.5,1.4,0.8,2.2c-6.6,3.9-13.1,7.8-21,12.5c4.8,0.4,7.8,0.7,10.8,1c0.1,0.9,0.2,1.9,0.3,2.8c-7.8,1.9-15.7,3.8-23.5,5.7
		c0.2,0.8,0.3,1.6,0.5,2.4c4.7,1,9.3,2,14,3c-0.1,0.9-0.2,1.8-0.3,2.7c-6.9,0-13.7,0-22.7,0c4.4,1.8,7,2.9,9.6,4c0,0.9,0,1.7,0,2.6
		c-2.8,0-5.6,0-8.5,0c-3,0-5.9,0-8.9,0c0,0.4,0,0.7-0.1,1.1c2.3,0.9,4.7,1.7,7,2.6c0,0.7,0,1.4,0,2c-4.4,0-8.9,0-13.5,0
		c-1,2.8,6.7,6.9-1.1,7.1c-2.8,0.1-5.6-2.1-9.2-2c2.1,2.2,4.1,4.3,6.2,6.5c-0.2,0.6-0.3,1.2-0.5,1.7c-1.8-0.3-3.8-0.4-5.5-1.1
		c-6.3-2.5-12.4-5.3-18.8-7.6c-0.6-0.2-2.7,2.4-3.4,4c-0.6,1.2-0.1,2.9-0.1,4.4c-0.6,0.3-1.2,0.5-1.8,0.8c-2.1-2.6-4.2-5.3-7.1-8.8
		c-5,5.5-9.6,10.7-14.3,15.9c-0.7-0.1-1.5-0.2-2.2-0.4c2-9-3.3-13-9.4-16.7c-1.4-0.9-1.9-3.2-2.9-4.8c1.9,0.3,4,0.3,5.7,1.1
		c2.4,1,4.4,2.7,6.6,4c0.5-0.7,1-1.4,1.5-2.1c-4.5-3.1-9.1-6-13.4-9.3c-1.6-1.2-2.6-3.3-3.9-4.9c2,0.1,4.1-0.1,5.9,0.5
		c3,1,5.8,2.6,8.7,4c0.4-0.8,0.8-1.6,1.3-2.3c-5.7-3.3-11.4-6.6-17.1-9.8c0.5-1,1-1.9,1.5-2.9c4.5,1.6,9,3.2,13.6,4.7
		c0.3-0.5,0.5-1,0.8-1.6c-6.5-3-13-6-19.5-8.9c0.2-0.8,0.5-1.6,0.7-2.4c3.4,0.3,6.9,0.6,10.3,0.9c0.1-0.5,0.2-1,0.3-1.5
		c-3.7-0.6-7.5-0.9-11.1-1.8c-2.5-0.7-4.8-2.3-7.3-3.4c0.3-0.6,0.6-1.2,0.9-1.8c-2.7,0.4-5.4,0.7-8.1,1.1c-0.3-0.9-0.6-1.9-1-2.8
		c4.4-1.9,8.7-3.7,13.1-5.6c0-0.5,0-1,0-1.4c-5.6-0.5-11.3-1.1-16.9-1.6c-0.1-0.9-0.2-1.8-0.3-2.7c4-0.8,8.1-1.6,12.1-2.4
		c0-0.6,0-1.2-0.1-1.8c-6,0.4-12.1,0.9-18.9,1.3c0.5-7,7.5-4.8,11.8-8c-6.8-5.4-13.5-0.2-21.1-0.2c1.1-2.5,1.8-4.2,2.9-6.8
		c-2.6,1.1-4.6,2.2-6.8,2.9c-1.4,0.4-3,0.2-4.5,0.2c0.8-1.5,1.1-3.7,2.4-4.4c3-1.9,6.4-3.1,11.3-5.4c-7.4-2.2-12.1,0.6-16.9,2.9
		c-1.5,0.7-3.4,0.5-5.1,0.8c0.9-1.7,1.4-3.9,2.8-4.9c2.7-1.9,5.8-3.2,9.7-5.2c-7.6-3.4-13.5-0.6-19.5,1.8c-1.9,0.7-4.2,0.3-6.3,0.5
		c1.4-1.7,2.5-3.9,4.3-4.9c3.4-1.8,7.1-2.9,12-4.8c-6.8-4.5-12.5-3.4-18.3-0.6c-1.8,0.8-3.3,2.1-5.1,2.8c-1.1,0.4-2.5-0.1-3.8-0.2
		c0.3-1.3,0.2-3.1,1.1-3.7c2.4-1.9,5.2-3.3,9.7-6c-6.7,0-11.6,0-16.5,0c-0.1-0.9-0.3-1.8-0.4-2.8c5.1-1,10.1-2.1,15.2-3.1
		c0.1-0.7,0.2-1.4,0.3-2c-8.3-0.8-16.6-1.6-24.9-2.3c-0.1-0.8-0.2-1.7-0.3-2.5c4.9-0.8,9.9-1.6,14.8-2.4c0.1-0.7,0.3-1.4,0.4-2.1
		c-7.8-1.1-15.5-2.2-23.3-3.4c0-1,0-2,0-2.9c4.8-0.3,9.5-0.6,15.6-1c-7-9-18.1-6.9-26.7-12.9c5.7-4.6,10.7,0.8,16.4-0.4
		c-4.2-9.1-16.3-6.9-20.1-16.5c3.7,1,7.4,2,11.2,3c0.3-0.5,0.5-0.9,0.8-1.4c-3.6-1.9-7.4-3.6-10.8-5.7c-2-1.2-3.5-3.2-5.2-4.8
		c2.2,0,4.3-0.1,6.5,0c1.4,0.1,2.7,0.4,4,0.6c0.3-0.6,0.6-1.1,0.9-1.7c-4.9-3.3-9.9-6.5-14.6-10.1c-1.8-1.3-2.8-3.7-4.1-5.6
		c2.2,0.4,4.3,0.7,6.5,1.2c1.1,0.3,2.1,0.9,4.1,0.3c-4.7-4.4-9.4-8.8-14.1-13.2c0.4-0.8,0.8-1.5,1.3-2.3c3.6,1.7,7.2,3.4,10.8,5.1
		c0.4-0.4,0.8-0.7,1.3-1.1c-5.8-5.1-11.5-10.2-17.3-15.4c2.9-1.7,2.9-1.7,15.5,3c-1.5-2.4-2.6-5.2-4.6-7c-3.5-3-7.6-5.2-11.3-8.1
		c-0.9-0.7-0.9-2.4-1.3-3.7c1.3-0.2,2.8-0.9,3.8-0.4c2.8,1.3,5.4,3,8,4.6c0.4-0.4,0.8-0.9,1.2-1.3c-3.3-3.2-6.7-6.3-9.7-9.7
		c-1.2-1.3-1.5-3.4-2.2-5.2c1.7,0.4,3.7,0.3,5,1.2c2.8,1.8,5.2,4.2,8.4,5.7c-1.4-6.9-6.2-11-12.3-13.8c-4.3-1.9-5.8-3.7-0.7-6.7
		c-1.5-0.4-3.1-0.5-4.2-1.3c-1-0.7-1.4-2.2-2.1-3.3c1.2-0.6,2.5-1.8,3.5-1.6c4,0.8,8,2.1,11.9,3.2c0.2-0.7,0.4-1.3,0.5-2
		c-7.1-1.4-14.2-2.8-21.3-4.2c0-0.8,0-1.6,0-2.4c3.9-0.5,7.7-1.1,13.3-1.8c-5.1-2.1-8.7-3.5-12.3-4.9c0.2-0.9,0.4-1.8,0.5-2.6
		c4.4,0.5,8.7,1,13.6,1.5c0.5-1.5,1.3-3.6,2-5.6c0.7-0.2,1.4-0.3,2.1-0.5c1.4,4.2,2.8,8.4,4.5,13.3c1.2-3.2,2.3-6,4.1-10.5
		c4.8,7.9-0.6,14.1,0.8,21.3c3.3-4.5,6-8.1,7.7-10.3c6,2.7,10.8,4.9,15.6,7c0.4-0.7,0.8-1.4,1.2-2.1c-5.4-3.6-10.8-7.1-16.2-10.7
		c0-0.5,0-1,0.1-1.6c2.7-0.2,5.3-0.4,8.5-0.6c-2.7-2.4-5.2-4.7-7.7-7c0.3-0.7,0.6-1.3,0.9-2c2.7,0.6,5.4,1.3,8.5,2
		c0.7-1.5,1.6-3.4,3.2-7c1.8,3.6,2.9,5.8,4,7.9c1.3-1.2,2.7-2.4,5.3-4.7c0,8.3,0,15,0,23.7c2.1-4.7,3.5-7.7,4.9-10.8
		c0.8,0.2,1.6,0.4,2.5,0.6c-0.5,7.3-1.1,14.6-1.6,22c0.5,0.1,0.9,0.1,1.4,0.2c0.9-2.7,1.7-5.3,2.6-8c0.7,0.1,1.5,0.2,2.2,0.3
		c0,4.4,0,8.8,0,13c10.6,1.8,2.4,8.8,5.8,12.3c1.3,2.7,3.7,5.5,3.7,8.2c-0.1,5.3-1.5,10.6-2.3,15.8c-0.4,2.5-0.6,5.1,0.3,8.1
		c2-3.4,4.1-6.7,6.1-10.1c0.9,0.4,1.8,0.9,2.6,1.3c-1,3.8-2,7.6-3.1,11.4c1.8-0.1,3.7-0.3,5.5-0.4c-0.4,1.8-0.6,3.5-1.1,5.3
		c-1.3,4.6-2.7,9.1-2.5,14.3c1.8-3.7,3.7-7.3,5.5-11c0.8,0.2,1.6,0.5,2.5,0.7c-0.9,6.7-1.8,13.4-2.7,20.1c0.6,0.1,1.1,0.3,1.7,0.4
		c1.5-3,3-6,4.4-9c0.8,0.2,1.6,0.4,2.3,0.7c-0.6,6.7-1.2,13.5-1.8,20.2c0.4,0.1,0.7,0.2,1.1,0.3c1.8-3.2,3.6-6.4,5.5-9.6
		c0.6,0.2,1.1,0.3,1.7,0.5c-0.4,7.8-0.8,15.6-1.2,23.5c0.8,0.1,1.7,0.2,2.5,0.3c1.2-5,2.3-10.1,3.5-15.1c0.9,0.1,1.8,0.3,2.7,0.4
		c0,6.8,0,13.7,0,20.5c0.5,0.1,1,0.1,1.5,0.2c0.7-3.4,1.5-6.8,2.2-10.2c0.7-0.1,1.5-0.1,2.2-0.2c2.4,8.7-0.1,19,7.7,27
		c0.6-6.2,1.1-11.5,1.6-16.9c1,0,2,0,2.9,0c0.9,8.5,1.8,17.1,2.8,25.6c1-0.1,2-0.2,3.1-0.3c0-5.3,0-10.6,0-16
		c6.2,4.9,11.8,9.2,18.8,14.6c-2.1-11.4-11.6-13.2-17.2-18.6c0.4-0.8,0.7-1.6,1.1-2.4c4.2,1.4,8.3,2.9,14.2,4.9
		c-5.8-5.7-10.5-10.3-15.2-15c0.7-0.7,1.4-1.5,2.1-2.2c3.9,2.5,7.8,5,11.7,7.5c0.4-0.4,0.9-0.8,1.3-1.1c-3.2-3.6-5.9-7.9-9.7-10.6
		c-5.8-3.9-9.6-8.1-7.4-16.5c3.9,1.4,7.8,2.8,11.6,4.2c0.4-0.5,0.7-1.1,1.1-1.6c-4-2.8-8-5.4-11.8-8.4c-1.7-1.3-2.9-3.2-4.3-4.8
		c2.1,0.1,4.3,0,6.4,0.3c1.1,0.2,2.1,0.9,3.2,1.4c0.4-0.6,0.8-1.3,1.2-1.9c-5.3-3.3-10.7-6.7-17.2-10.8c3.3-0.9,5.3-1.6,6.5-1.9
		c-4.7-4.1-9.7-8.5-15.5-13.6c2.1-1.3,4.4-2.9,7.4-4.8c-4.6-0.5-8.6-0.9-12.6-1.3c-0.1-0.7-0.2-1.3-0.3-2c2.3-1.2,4.6-2.3,7.1-3.6
		c-1.8-2.2-3.4-4.4-5.1-6.5c0.5-0.7,1-1.4,1.5-2.2c3.2,1.7,6.4,3.5,10.2,5.6c0-1.4-0.3-2.6,0.1-3.6c0.4-1.2,1.4-2.2,2.1-3.3
		c0.9,0.9,2.4,1.7,2.7,2.8c1.1,3.6,1.9,7.2,4.3,10.7c0.3-4.7,0.5-9.4,0.8-14c0.8,0,1.6-0.1,2.3-0.1c4.6,6.9,0.2,15.7,3.9,24.5
		c1.1-4.4,1.8-7.4,2.5-10.5c0.8,0.1,1.6,0.1,2.5,0.2c0,4.9,0,9.8,0,15.2c4.3-2,7.7-3.4,6.5,3.1c-0.9,4.8-1.3,9.6-1.1,14.6
		c1.4-2.8,2.8-5.5,4.2-8.3c0.9,0.3,1.8,0.5,2.6,0.8c-0.8,5-1.5,9.9-2.3,14.9c1.5-1.3,3.1-2.5,6.4-5.3c-0.5,4.7-0.7,7.4-1.1,11
		c8.4-6.9,14,1.2,21.8,3.6c-3.7-11.4-15.1-12-23.3-18.8c8-3.5,12.5,3.6,19.1,2c-6.6-4.4-13.2-8.7-19.8-13.1c0.2-0.8,0.4-1.5,0.6-2.3
		c4.1,1.1,8.2,2.2,12.3,3.3c0.4-0.3,0.8-0.6,1.2-0.9c-5.5-5.2-10.9-10.4-17.3-16.5c6.8-3.1,9.8,3.7,15.7,3.5
		c-4.3-4.8-8.6-9.6-12.9-14.4c0.2-0.5,0.4-1.1,0.5-1.6c2.8,0.6,5.5,1.3,10.3,2.4c-4.5-4.6-7.9-7.8-10.9-11.3
		c-1.2-1.4-1.8-3.5-2.6-5.3c2,0.6,4.1,0.9,6,1.7c1.2,0.5,2.2,1.6,4.4,1.6c-3-4.6-6-9.2-9-13.8c0.8-0.6,1.5-1.2,2.3-1.8
		c3.3,3.1,6.7,6.1,10,9.2c0.6-0.4,1.2-0.8,1.8-1.2c-3.5-5.5-7-11-10.5-16.4c0.5-0.6,0.9-1.1,1.4-1.7c3.1,2,6.2,4,9.3,6
		c0.4-0.2,0.9-0.4,1.3-0.6c-3-6.3-6-12.6-9-18.9c1-0.7,1.9-1.5,2.9-2.2c2.2,3.4,4.5,6.9,6.7,10.3c0.7-0.5,1.5-1,2.2-1.5
		c-2-5.9-4-11.8-6.6-19.3c3.5,1.6,5.5,2.4,7.9,3.5c-1.3-5.4-2.6-10.5-3.9-15.6c0.9-0.3,1.9-0.5,2.8-0.8c2.1,4.1,4.1,8.3,6.2,12.4
		c0.5-0.1,1.1-0.3,1.6-0.4c-1.6-5.9-3.2-11.8-4.9-17.8c1-0.3,2-0.6,2.9-0.9c1.8,3.1,3.6,6.2,5.7,9.9c2.9-3.8,5.6-7.2,8.3-10.7
		c0.9,0.4,1.7,0.8,2.6,1.3c-1.6,3.9-3.2,7.8-5.1,12.4c2.9-0.3,5.5-0.6,8.1-0.9c0.4,0.8,0.7,1.5,1.1,2.3c-4.9,2.6-9.9,5.2-14.8,7.7
		c0.2,0.4,0.4,0.9,0.7,1.3c2.7,0,5.4,0,9.6,0c-5,7-16.1,6.1-16.4,16.2c4-1.1,7.5-2.2,11.1-3.2c0.3,0.6,0.6,1.3,1,1.9
		c-4.1,6.5-15.8,6-16.4,16.2c4.2-1.4,8.1-2.7,11.9-3.9c0.4,0.8,0.9,1.6,1.3,2.4c-5.8,5.2-15,7.9-14.8,17.9c3.7-1.4,7-2.7,10.3-4
		c0.2,0.6,0.5,1.3,0.7,1.9c-3.6,4.3-7.3,8.6-10.6,13.1c-0.6,0.8,0.2,2.7,0.5,5.1c2.9-2.6,5.2-4.7,7.5-6.8c0.6,0.3,1.2,0.6,1.8,1
		c-0.7,8.1-11.5,14.4-5.9,24c2.5-1.9,4.8-3.7,7.1-5.5c0.6,0.3,1.2,0.7,1.7,1c-0.7,7.3-11.5,12.6-4.8,21.6c2.4-2,5-4.1,7.5-6.2
		c0.6,0.3,1.2,0.6,1.8,1c-0.9,7.4-10.2,13.5-4.9,22c3-2.6,5.7-5,8.4-7.3c0.7,0.6,1.3,1.3,2,1.9c-1.8,3.2-4.1,6.3-5.3,9.8
		c-1.2,3.3-1.2,7.1-1.7,10.6c0.6,0.1,1.2,0.2,1.7,0.3c2-2.4,4.1-4.8,6.1-7.2c0.5,0.2,1,0.5,1.5,0.7c-1.5,7.5-3,15-4.5,22.5
		c0.7,0.2,1.4,0.4,2.2,0.6c2.6-3.5,5.1-7.1,7.7-10.6c0.7,0.4,1.5,0.8,2.2,1.3c-2.7,8.2-5.4,16.3-8.2,24.5c0.6,0.3,1.1,0.5,1.7,0.8
		c3.4-2,6.7-4.1,10.1-6.1c0.5,0.7,1,1.3,1.5,2c-3.6,6.5-13.4,10.5-8.5,20.5c2.4-0.8,4.9-1.6,8-2.5c-2.8,7.2-5.2,13.3-7.6,19.4
		c0.7,0.4,1.4,0.8,2.1,1.1c2.3-1.3,4.6-2.6,7-3.9c0.5,0.4,1.1,0.7,1.6,1.1c-3.5,6.1-7,12.2-10.5,18.3c0.8,0.6,1.5,1.1,2.3,1.7
		c2.7-2.4,5.4-4.8,8.1-7.3c4.1,4.7,7.9,9.1,11.8,13.5c0.6-0.4,1.1-0.8,1.7-1.2c-2.5-3.7-5.2-7.2-7.4-11c-1.1-1.8-1.4-4-2-6.1
		c1.9,0.9,4,1.7,5.8,2.9c0.9,0.6,1.4,1.9,2.1,2.9c0.6-0.4,1.1-0.8,1.7-1.2c-2.4-4-4.9-7.9-7.9-12.9c8.1-2.2,8.2,6.1,13.3,7.5
		c-3.7-5-7.3-10-11-15c0.3-0.6,0.6-1.3,0.9-1.9c2.7,1.2,5.5,2.3,8.2,3.5c1.8-7-13.4-8.2-6.8-17.5c-2-1.7-4.1-3.4-6.1-5.1
		c0.5-0.9,1-1.8,1.6-2.7c4.1,2,8.1,3.9,14.4,7c-3.6-4.2-5.7-7.1-8.2-9.6c-2.4-2.4-5.2-4.4-7.8-6.6c0.3-0.6,0.6-1.1,0.9-1.7
		c2.1,0,4.3,0,7.8,0c-4.9-3.5-8.9-6.3-12.8-9c0.4-0.9,0.7-1.7,1.1-2.6c3.3,1,6.6,2,9.9,3c0.4-0.3,0.8-0.7,1.3-1
		c-3.1-2.9-5.9-6.2-9.3-8.7c-3.4-2.5-7.4-4.3-11.1-6.4c0.5-1,0.9-2,1.4-2.9c4.7,1.7,9.3,3.4,14,5.1c0.3-0.3,0.6-0.6,0.8-0.9
		c-5.4-4-10.7-8-16.1-12c0.5-0.8,1-1.6,1.5-2.3c3.1,1.1,6.1,2.1,9.2,3.2c0.4-0.6,0.8-1.2,1.2-1.8c-7.5-5.5-15.1-11-23.8-17.3
		c8.7-2.9,12.9,4.6,18.9,5.7c0.6-0.7,1.3-1.4,1.9-2c-6.2-5.3-12.4-10.7-18.6-16c0.4-0.7,0.8-1.4,1.2-2.1c2.8,0.9,5.6,1.8,10.6,3.4
		c-6.4-6.4-11.4-11.3-16.3-16.3c0.7-0.8,1.4-1.7,2.1-2.5c3.9,2.7,7.8,5.4,11.7,8.1c0.5-0.5,1-1,1.6-1.5
		c-5.9-5.6-11.9-11.1-17.8-16.7c0.4-0.7,0.8-1.5,1.2-2.2c3.3,1.5,6.5,3,11.9,5.4c-4.9-5.6-8.6-9.7-12.3-13.8
		c0.6-0.8,1.2-1.6,1.9-2.3c3.8,2.6,7.5,5.2,11.3,7.8c0.5-0.2,1-0.4,1.5-0.6c-2.4-4.9-4.9-9.8-7-14.9c-0.7-1.6-0.4-3.7-0.5-5.5
		c1.5,0.9,3.4,1.5,4.5,2.7c1.7,2,2.9,4.4,6,6.5c-1-7-2-14-3-21c0.9-0.2,1.7-0.4,2.6-0.6c1.6,3.3,3.1,6.6,5,10.4
		c1.9-3.2,3.6-6.2,6.3-11c3.8,7.8-2.5,12.2-2.2,17.6c4.4-1.1,8.9-2.2,13.3-3.2c0.4,0.8,0.7,1.6,1.1,2.4c-6.3,3.7-12.6,7.4-18.9,11.1
		c0.3,0.7,0.7,1.3,1,2c4-0.8,7.9-1.6,11.9-2.5c0.4,0.6,0.7,1.1,1.1,1.7c-3.8,6.4-18.1,4.7-14.1,17.1c3.2-1.9,6.4-3.8,9.6-5.6
		c0.4,0.4,0.8,0.9,1.2,1.3c-3.6,6-7.1,12.1-10.7,18.1c0.6,0.4,1.3,0.8,1.9,1.2c2.4-2.7,4.7-5.5,7.1-8.2c0.6,0.4,1.2,0.7,1.7,1.1
		c-1.9,7.5-3.8,15-5.7,22.5c0.6,0.2,1.1,0.5,1.7,0.7c0.6-0.8,1-1.7,1.8-2.3c1.5-1.2,3.2-2.2,4.8-3.3c-0.1,1.9,0,3.8-0.4,5.7
		c-0.9,4.2-2.1,8.3-3.3,12.8c1.5-0.2,2.1-0.2,2.3-0.4c2-2.5,3.9-5.1,5.8-7.7c-0.3,3.1-0.6,6.2-1,9.3c-0.6,5.1-1.3,10.2-0.2,15.5
		c2.1-3.6,4.3-7.1,6.4-10.7c0.8,0.3,1.7,0.7,2.5,1c-2,8.1-3.9,16.3-5.9,24.4c0.6,0.3,1.2,0.5,1.7,0.8c2.8-3.3,5.5-6.6,8.3-9.9
		c1,0.5,2,1,3,1.5c-3.2,8.2-11.1,15.3-7.5,25.8c2.9-3.4,5.6-6.5,8.3-9.7c0.8,0.4,1.5,0.9,2.3,1.3c-3,7.1-6,14.1-9.1,21.2
		c0.5,0.3,1,0.7,1.5,1c2.7-2.4,5.5-4.7,8.2-7.1C243.2,945.6,244,946.1,244.9,946.5z M49.5,856c0.5-0.8,1-1.6,1.4-2.4
		c3,1.3,6.1,2.6,9.1,3.8c0.6-0.4,1.1-0.9,1.7-1.3c-5.9-7.4-11.8-14.8-17.7-22.2c0.4-0.5,0.8-1,1.2-1.5c2.7,1.3,5.4,2.6,10,4.9
		c-7.7-8-15.8-13.9-14.7-25.6c-0.2-0.1-2-0.5-3.2-1.5c-1.3-1.1-2-2.8-3-4.2c1.7-0.1,3.4-0.5,5.1-0.2c2,0.4,3.9,1.3,5.8,2
		c0.3-0.8,0.6-1.6,0.9-2.3c-6.4-2.6-12.8-5.2-19.8-8.1c-2.5,4.8-4.8,9.2-7.1,13.6c2.5-0.9,3.3-2.7,4.7-4c1-1,2.7-1.4,4.1-2
		c0.1,1.5,0.6,3.2,0.1,4.4c-1.3,3.1-3.1,6.1-4.6,9.1c-0.3,0.5-0.1,1.3-0.2,1.8c2.1-0.3,3.9-0.5,7.1-0.9c-3.9,6.6-6.9,11.9-10,17.2
		c0.5,0.2,0.9,0.4,1.4,0.7c2.7-2.2,5.3-4.4,8-6.6c0.6,0.5,1.2,1.1,1.8,1.6c-2.8,5.1-5.5,10.1-8.9,16.3c4.6-1.9,7.3-3,10-4.1
		c0.4,0.6,0.8,1.3,1.2,1.9c-2.1,2.5-4.5,4.9-6.1,7.7c-1.6,2.7-2.3,5.9-3.3,8.9c0.6,0.2,1.2,0.3,1.8,0.5c2.2-3.3,4.4-6.6,6.6-9.9
		c0.9,0.4,1.8,0.9,2.6,1.3c-2.3,6.7-4.6,13.4-7,20c0.6,0.1,1.2,0.3,1.8,0.4c2.1-3.1,4.2-6.1,6.4-9.2c0.7,0.4,1.4,0.7,2,1.1
		c-1.8,7-3.6,13.9-5.3,20.9c0.6,0.1,1.3,0.3,1.9,0.4c1.8-2.5,3.6-5,5.4-7.4c0.7,0.4,1.4,0.8,2.1,1.2c-0.8,4.3-1.7,8.7-2.9,14.8
		c2.8-3,4.3-4.6,7.2-7.7c0,8.1,0,14.4,0,20.7c0.4,0,0.8,0,1.2-0.1c0.3-3.1,0.5-6.3,0.8-9.4c1-0.1,1.9-0.2,2.9-0.4
		c1.1,5.2,2.2,10.5,3.3,15.9c1.7-1.5,3.1-2.8,5.1-4.5c2.1,7.9,3.9,14.7,5.7,21.5c0.3-0.2,0.7-0.3,1-0.5c0.4-4.1,0.8-8.1,1.3-12.2
		c0.8,0,1.5,0.1,2.3,0.1c1.8,6.5,3.6,13.1,5.4,19.6c0.7-0.1,1.4-0.3,2.1-0.4c0.9-8.5-1.5-19.4,14.3-17.4c-0.5-0.7-1-1.4-1.5-2.1
		c-7.3-1-14.6-2-22-2.9c0-1,0.1-1.9,0.1-2.9c4.9-0.4,9.8-0.9,14.8-1.3c-2.2-1.7-4.6-2.3-7-3.1c-3-0.9-6.1-1.7-8.9-3.1
		c-1.1-0.5-1.4-2.6-2-3.9c1.3-0.2,2.6-0.7,3.8-0.4c2.1,0.4,4,1.3,6.7,2.2c-3.1-7.4-13-6.4-15.3-15.5c4.6,1.5,7.6,2.5,10.6,3.4
		c0.2-0.4,0.4-0.9,0.6-1.3c-4.9-2.8-9.7-5.6-14.6-8.3c0.1-0.6,0.2-1.2,0.3-1.7c3,0,6,0,9,0c0.1-0.5,0.2-1,0.4-1.5
		c-5.7-3.7-11.4-7.5-17.1-11.2c0.3-0.8,0.6-1.6,0.8-2.5c3.7,0.9,7.3,1.9,12.8,3.3C58.2,863.9,53.8,859.9,49.5,856z M153.4,951.4
		c0.5,0.3,1,0.7,1.5,1c0.6-0.4,1.1-1,1.7-1.3c2.3-1.2,4.6-2.3,6.9-3.4c-1,2.2-1.9,4.4-3,6.6c-0.9,1.8-2.1,3.5-3.5,5.9
		c2.7-0.7,4.5-1.2,7.7-2c-1.1,3.5-1.8,5.6-2.9,9c1.4,0.8,3.4,1.9,4.7,2.6c-1.6,5.1-2.8,9.3-4.4,14.4c3.4-0.9,5.3-1.4,8.1-2.1
		c-0.6,4.8-1.1,8.8-1.6,12.7c7.1,2,8.1,5.8,5.6,16.1c4.7,5,8.5,9,12.3,13c0.5-0.1,0.9-0.3,1.4-0.4c-3.1-6.7-6.3-13.5-9.4-20.2
		c0.6-0.4,1.2-0.8,1.7-1.2c2.8,2.5,5.7,5.1,8.5,7.6c0.5-0.3,1.1-0.6,1.6-0.9c-4.1-7-8.2-13.9-12.4-20.9c0.8-0.6,1.6-1.1,2.4-1.7
		c4,4.3,7.9,8.6,12.4,13.5c-0.2-9.7-7.4-14.1-13.1-19.4c0.6-0.8,1.2-1.6,1.8-2.4c3.5,1.7,7,3.3,10.4,5c0.3-0.3,0.5-0.6,0.8-0.9
		c-4.3-3.8-8.5-7.5-12.8-11.3c0.6-0.7,1.2-1.4,1.8-2.1c3.7,1.7,7.4,3.4,12,5.4c-3.4-12-13.7-15.6-21.3-22.2
		c7.9-3.3,11.9,4.7,18.5,6.3c-0.2-14.5-15.7-12.4-21.9-19.8c0.4-0.8,0.8-1.6,1.2-2.3c5,1.6,9.9,3.2,16,5.2
		c-5-10.5-14.4-13.3-22.8-18.4c-3.5,4.8-6.9,9.6-10.4,14.3c0.9,0.7,1.8,1.5,2.6,2.2c1.2-2.7,2.4-5.3,3.6-8c1.1,0.7,2.1,1.4,3.2,2.2
		C159.4,939.5,156.4,945.4,153.4,951.4z M151.6,926.7c11.4-13.7,21.5-3.7,32.3,1.6c-3.3-13.8-15.6-14.6-24.2-20.2
		c7.1-3.4,12.6,2.2,20.4,3.2c-5.8-9.6-13.5-13.6-22.6-16.5c-1.5,3.5-2.7,6.4-4.2,9.9c5.9-0.1,5.8,2.4,4,6.5
		C155,916.2,153.4,921.5,151.6,926.7z M85.4,950c1,0,1.9,0,2.9,0c0.4-5.2,0.8-10.4,1.2-16.6c2.6,0.5,4.8,1,7.1,1.3
		c2.4,0.4,4.8,0.6,8.4,1.1c-7.2-8.6-12.1-10.1-21.9-7.1C83.8,935.6,84.6,942.8,85.4,950z M93.2,939.4c1,7.1,1.8,12.9,2.7,18.8
		c1-0.1,2-0.3,2.9-0.4c-0.4-3.4-0.9-6.8-1.5-11.4c5.4-0.4,10.7-0.8,16-1.1c0-0.8,0-1.7,0-2.5C107.4,941.8,101.3,940.8,93.2,939.4z
		 M196.7,1008c0.6,0.6,1.2,1.3,1.9,1.9c3.4-2.7,6.9-5.4,11.3-8.9c2,3.7,4,7.5,6.1,11.4c2-7.5-0.5-12.4-9.3-17.5
		C203.3,999.2,200,1003.6,196.7,1008z M245.2,1009.4c3.8-6.8,1-18.5-6-24.4C238.5,993.7,246,1000.6,245.2,1009.4z M113.3,957.1
		c3.8-0.6,7.5-1.1,11.3-1.7c0.1-1,0.2-2,0.3-3c-4.2-0.9-8.4-1.9-13.6-3C112.4,953.4,112.8,955.2,113.3,957.1z M133.2,965.6
		c-3.2-7.5-8.4-4.4-12.9-3.6c-0.9,0.2-1.1,3.9-1.7,5.9c1.2,0.8,2.4,1.6,3.7,2.5c1-2.7,2-5.4,2.6-6.8
		C128.6,964.5,130.9,965,133.2,965.6z"/>
</g>
<g class="st1">
	<path d="M1910.5,751.5c2.2,17.3-1.2,33.7-7.1,49.8c-5.4,14.7-4.8,29.7-1.6,44.7c1.1,5.4,2.3,10.7,3.3,16.1
		c2.9,14.8,2,29.5-6.3,42.3c-12.2,18.9-13,38.9-9.6,60.2c2,12.3,3,24.9,2.7,37.3c-0.7,24.5-10.8,44.3-32.7,56.9
		c-5.1,2.9-9.9,6.3-15.9,8.3c1-1.3,1.7-2.8,2.9-3.9c15.8-13.4,19.3-30.9,16.9-50.3c-0.8-6.5-2-12.9-3.5-19.2
		c-3.9-16.9-1.8-33,5.5-48.8c3.3-7.1,5.9-14.5,8.2-21.9c4.8-15.8,4.4-31.7-3.6-46.3c-8.5-15.7-8.6-31-1.9-47.3
		c12.4-30.2,9.6-59.2-8.7-86.4c-11.4-16.9-17.9-35.3-18.3-55.9c-0.5,2.3-1.1,4.6-1.8,7.7c-1.2-1.5-1.8-2.3-2.5-3.2
		c-0.3,0.4-0.8,0.7-0.8,1.2c-2,15.7,0.7,30.6,6.5,45.2c3.9,9.7,8.2,19.2,11.6,29c6,17.2,6.1,34.6-2.2,51
		c-9.1,17.9-9.4,35.5-0.6,53.3c10.4,21.3,10.1,42.2-1.2,62.9c-10.9,20.1-12.8,40.5-5.2,62.6c3.7,10.8,4.1,23,4.6,34.6
		c0.2,6-2.7,12.2-5.5,18.1c3.2-23.2-2.9-44.3-11.9-65c-1-2.4-1.8-4.9-2.7-7.3c-8.9-22-9.1-44,2.7-64.9c10.2-18.1,10.5-35.7,2.1-54.5
		c-8.6-19.1-8.2-39.3,1.4-57.6c12.5-23.8,11.8-45.9,0.6-70c-9.7-20.9-4.3-42.1,6.6-63.1c0.8,8.6,1.5,15.9,2.2,23.2
		c1.4,14.5,7.3,27,16.2,38.4c6.7,8.6,13.6,17.2,19.6,26.3c10.4,16,13.2,33.4,5.5,51.4c-19.7,46.2-11.6,46.1,1.7,79.3
		c0.5,1.2,1.1,2.3,2.2,4.5c5.2-6.6,7.5-13.3,6.2-20.7c-1.4-8.2-3.1-16.4-5.7-24.3c-6.2-19.2-3.9-37.3,4.5-55.4
		c5.4-11.7,9.1-24.2,13.6-36.3c0.3-0.8,1.5-1.2,2.2-1.9C1910.6,751.5,1910.5,751.5,1910.5,751.5z M1876.5,945.9
		c-7.2,12.4-4.9,25.2-2.8,38.1c2,12.8,3.3,25.8,5,38.6c0.1,0.8,0.6,1.6,1.7,4.3C1893,997.9,1884.2,972,1876.5,945.9z"/>
	<path d="M1783.7,696.7c-5.5,18.7-3.5,37,0.7,55.1c7.5,31.9,3.9,62.6-8.2,92.7c-10.2,25.1-10.7,49.8,3.2,73.7
		c14.2,24.3,14.1,50.1,10,76.7c-1.1,7.5-2.1,15-2.1,22.5c0,17.9,7,32.4,22.4,42.3c5.2,3.3,10.4,6.6,16.4,10.3
		c-20.7-0.1-42.7-18.5-48.4-40c-5.8-21.6-3.7-43.6-0.9-65.3c1.6-12.6,0.1-24.3-6.9-34.4c-22.6-32.8-23.4-68-10.7-103.9
		c9.4-26.6,10.6-53.9,12.4-81.5c0.9-13.6,4.9-27,7.9-40.4C1780.1,701.8,1782.2,699.3,1783.7,696.7z"/>
	<path d="M1831.8,1064.5c-18.8-18.5-32.1-39.2-27.2-67c2-11,3.1-22.2,4.2-33.4c1.4-14.9-1.2-29.1-8.4-42.3c-0.6-1.1-1.1-2.4-1.7-3.5
		c-12.2-19.7-13.5-40.4-7-62.4c6.9-23.4,9.3-47.7,7.5-72c-1.3-16.8-5.4-33.4-7.9-50.1c-1.1-7.1-1.1-14.4,0.2-22.1
		c0.6,1.4,1.4,2.8,1.8,4.3c5,16.7,10,33.5,14.9,50.2c5,17.1,5.1,34.5,1.5,51.9c-3.1,14.8-6.6,29.5-9.4,44.4
		c-3.4,18.3-1.9,36.3,8.4,52.1c14.6,22.4,14.7,45.9,9,70.7c-2,8.9-3.6,17.9-4.4,26.9c-1.1,12.9,2.5,24.7,9.6,35.6
		C1826.4,1052.9,1828.9,1058.8,1831.8,1064.5z"/>
	<path d="M1910.5,751.5c0,0,0.1,0.1,0.1,0.1c-3.4-9.4-6.8-18.8-10.2-28.2c19.3,25.2,30.3,52.8,21.8,84.8c-3.4,12.9-2.6,24.5,4,36
		c10,17.6,7.5,35.8,1.3,53.7c-2.9,8.3-6.8,16.4-11.3,24c-6.8,11.3-7.5,22.5,0.6,32.8c24.7,31.5,9.4,88.9-44.1,110.9
		c3-2.8,5-4.7,7-6.6c29.6-29.2,38.1-64.5,28.3-104c-4.2-16.9-3.5-31.9,3.8-47.6c8.9-19.1,9.8-39.4,4.3-59.6
		c-4.2-15.6-4.1-30.6,0.6-46.1c4.9-16.2,7.1-32.6-1.6-49.2c-0.5,0.6-0.9,0.9-1.1,1.4c-0.2,0.4-0.3,1-0.7,2.3
		C1912.2,754.1,1911.3,752.8,1910.5,751.5z"/>
	<path d="M1831.8,1069.1c5.4-6.2,11.6-11.9,16.1-18.7c8.5-12.9,7.5-27.3,4.4-41.6c-1.8-8.4-4.1-16.7-6.3-25
		c-3.6-13.4-2.5-26.3,3.3-38.9c3.2-7.1,6.6-14.2,9.4-21.5c5.5-14.4,5.6-29,0.3-43.6c-0.7-2-1.3-4-2.2-5.8
		c-10.4-18.9-9.7-37.5-0.5-56.8c9.3-19.5,7.3-39.5-0.9-59.1c-4.2-9.8-8.1-19.8-11.9-29.7c-1.5-4-2.2-8.4-3-11.4
		c6.3,11.5,12.8,23.9,19.9,35.9c11.6,19.8,13.8,40.7,8.3,62.6c-2,8.1-4.8,16-7.1,24c-3.1,10.9-3.9,22.1,1.8,32
		c14,24.7,9.8,48.7-1.6,72.6c-7.6,15.9-9.5,32.3-6.1,49.5c1.8,9.5,3.4,19,4.2,28.6C1861.2,1040.6,1847.6,1063.1,1831.8,1069.1z"/>
	<path d="M1787.3,742.3c12.4,37.8,9.9,75.8,0.6,113.4c-5.7,23.1-5.4,44.6,7.5,65.3c9,14.5,11.2,30.6,9,47.5
		c-0.8,6.5-1.5,12.9-2.6,19.4c-4.6,26.8-1.8,51.6,20.5,72.1c-14.6-3.4-26.9-15.5-28.8-30.8c-1.6-12.7-1.2-26,0.5-38.8
		c3.5-27.1,1.9-53-12.1-77.2c-12-20.7-11.3-42.1-3.3-64c4.4-12.2,8.3-24.7,11.3-37.3c5.1-21.5,2.1-43-1.8-64.3
		C1787.7,745.9,1787.6,744.1,1787.3,742.3z"/>
	<path d="M1918.2,769.2c-1.2,8.8-1.3,17.9-4,26.2c-6.2,18.9-7.8,37.1-1.3,56.5c5.9,17.7,2.1,36-5,52.7c-7.9,18.5-7.6,36.3-2.8,55.6
		c10,40.7-6.7,82.7-41.4,107.1c-3.2,2.3-8.1,2.3-12.2,3.4c-0.2-0.6-0.5-1.2-0.7-1.8c2.7-1.8,5.3-3.8,8.1-5.3
		c26-14.6,37.8-37.4,37.4-66.5c-0.2-12.7-1.7-25.5-3.9-38c-2.9-16.9-1.1-32.7,7.5-47.5c10.9-18.8,13.5-38.8,7.3-59.6
		c-5.7-19-4.6-37.4,2-56c3.1-8.7,4.8-17.9,7.2-26.9C1917,769.1,1917.6,769.1,1918.2,769.2z"/>
</g>
<path class="st3" d="M591.8,224.7c-0.6-0.5-1.1-1.1-1.7-1.6c-3.6-5.1-7.1-2.7-10.6,0.7c-0.4-0.3-0.7-0.6-1.1-0.9
	c1.8-4.5,3.6-8.9,5.5-13.4C590.6,211.4,594.1,218.2,591.8,224.7z"/>
<path class="st3" d="M569,222.6c0.3,0,0.7-0.1,1-0.1c0,0,0,0.4,0,0.4s0.4,0.1,0.4,0.1c0,0-0.2,0.3-0.2,0.3l0.4,0.2
	c0.2,1.6,0.3,3.3,0.6,4.9c0.3,1.6,1,3.2,1.5,4.7c-0.4,0.3-0.9,0.5-1.3,0.8c-2.6-3-5.1-5.9-8.1-9.4
	C565.6,223.9,567.3,223.2,569,222.6z"/>
<path d="M570.7,223.6l-0.4-0.2c0,0,0.2-0.4,0.2-0.3C570.5,223.2,570.6,223.4,570.7,223.6z"/>
<g class="st4">
	<path d="M374.2,965c2.3-4.5,4.4-8.6,6.7-12.8c0.8-1.4,1.7-2.8,2.7-4c3.8-4.9,7.9-9.4,15-8.1c5.9,1.1,12,8.1,13.2,14.9
		c1.1,6.3,0.1,12.6-2.9,18c-5.3,9.6-11.2,18.9-17.3,28.1c-8.9,13.4-18.6,26.3-27.4,39.8c-3.5,5.3-5.6,11.6-8.5,17.3
		c-1.4,2.8-3,5.7-5.2,7.9c-2.6,2.6-5.4,1.6-5.4-2.1c0-5,0.4-10.2,1.8-15c3-10.8,6.8-21.5,10.2-32.2c0.3-0.9,0.4-1.7-0.2-2.9
		c-1.4,3.4-3,6.8-4.2,10.2c-4.7,13.4-9.4,26.9-9.6,41.3c0,1.2-0.3,2.4-0.8,3.5c-1.4,3.2-4.5,3.6-6,0.5c-1.5-3.1-2.8-6.6-2.9-9.9
		c-0.3-22.7,0.7-45.4,4.3-67.8c1.2-7.7,3.9-15.3,6.6-22.7c1.1-3.2,3.4-6.1,5.9-8.5C357.8,952.9,367.3,954.8,374.2,965z M395.1,943.5
		c-4.2,0.1-7.2,3.8-4.9,7.3c2.8,4.2,6.5,8,10.6,11c3.3,2.4,7.1-0.3,7.3-4.4C408.6,951.1,401.3,943.4,395.1,943.5z M359.7,957.7
		c-1.8,0.9-3.9,1.5-5.4,2.7c-0.5,0.4-0.2,2.7,0.5,3.5c3.5,4.1,7.8,7,13.2,7.6c3.8,0.4,5.2-1.5,3.9-5.2
		C370.3,961.9,365.4,958.6,359.7,957.7z"/>
	<path d="M313.4,970.2c1.1-12,1.4-23.2,3.3-34.1c2.1-12.9,10-15.1,19.8-6.5c7.2,6.3,9.9,14,7.9,23.4c-3.5,16-6.9,32-10.2,48
		c-3.9,19-3.2,38.1-1.3,57.3c0.2,1.6,0.2,3.3-0.1,4.8c-0.3,1.4-1.2,2.7-1.8,4.1c-1.3-0.9-3.1-1.5-3.7-2.7c-1.4-2.8-2.7-5.9-3.2-9
		c-2-10.8-4-21.6-5.3-32.5C316.6,1005.2,315.1,987.3,313.4,970.2z M337,945.6c3.2,0,4.8-1.7,3.7-4.6c-2.5-6.3-6.7-11.4-13.1-14
		c-3.6-1.5-5.8,0.3-5.6,4.1C322.3,938.2,330,945.6,337,945.6z"/>
	<path d="M278,971.8c-0.1-18.3,8.3-25,22-21.9c4.8,1.1,7.1,3.9,7.6,10c0.6,6.4,0.9,12.8,1.4,19.3c2,27.1,7.2,53.7,12,80.3
		c0.4,2.2,0.8,4.5,0.8,6.8c0,3-1.9,4-4.2,2.5c-2.4-1.6-4.7-3.6-6.3-6c-2.2-3.2-3.9-6.7-5.3-10.3c-7.6-19.9-15.2-39.8-22.3-59.9
		C280.8,984.5,279.2,976.1,278,971.8z M291,961.4c2.8-1,6.5-1.9,9.8-3.5c2.8-1.4,2.5-3.7-0.4-4.9c-4.8-1.9-9.7-2.1-14.4,0.2
		c-1.2,0.6-2.6,2.3-2.7,3.5c0,1.2,1.4,2.8,2.6,3.6C287,960.9,288.6,960.9,291,961.4z"/>
	<path d="M419,1015.9c-0.1,8.7-3.9,15.2-11.1,19.9c-7.8,5.2-15.6,10.4-23.5,15.5c-9.4,6.2-17.5,13.7-24.7,22.3
		c-0.9,1.1-1.9,2.3-3.2,3c-2.7,1.6-5.3,0-5.1-3.1c0.2-2.1,0.6-4.4,1.5-6.2c4.2-7.9,8.2-16,13.2-23.4c7.1-10.5,14.8-20.8,22.8-30.6
		c3.7-4.6,8.4-8.8,13.5-11.7c7.5-4.3,13.6-1,15.6,7.6C418.5,1011.4,418.7,1013.7,419,1015.9z M402.7,1011c0,4.7,1.6,9,5.5,12.2
		c3.5,2.9,7,1.8,8.5-2.5c1.9-5.7,0-10.7-3.7-14.9c-1.5-1.7-4.5-3.4-6.2-2.9c-1.7,0.5-2.7,3.7-3.8,5.8
		C402.7,1009.3,402.8,1010.1,402.7,1011z"/>
	<path d="M315.4,1072.9c-6.3-2.4-12.7-4.6-18.9-7.2c-9.2-3.9-17.7-9.1-24.4-16.6c-2.6-2.9-4.7-6.6-6-10.3c-1.8-5.3,0.7-9.4,5.9-11.6
		c7-2.9,14.1-0.9,18.3,5.5c3.3,4.9,6.1,10.1,9.4,15c4.4,6.7,9.1,13.2,13.6,19.9c1,1.4,1.9,2.8,2.8,4.2
		C315.9,1072.2,315.7,1072.5,315.4,1072.9z M272,1037.8c3.5-0.9,6.7-1.5,9.7-2.6c1.2-0.5,2.8-2.4,2.6-3.5c-0.2-1.4-1.7-3.1-3.1-3.6
		c-4.4-1.6-8.2,0.2-11.3,3.3c-1,1-2.3,3.1-1.9,4C268.6,1036.6,270.6,1037.1,272,1037.8z"/>
	<path class="st5" d="M395.1,943.5c6.2-0.1,13.5,7.7,13.1,13.9c-0.3,4-4,6.7-7.3,4.4c-4.1-2.9-7.9-6.8-10.6-11
		C388,947.2,390.9,943.5,395.1,943.5z"/>
	<path class="st5" d="M359.7,957.7c5.7,0.8,10.6,4.1,12.2,8.7c1.3,3.6-0.1,5.6-3.9,5.2c-5.5-0.6-9.8-3.5-13.2-7.6
		c-0.7-0.8-1-3.1-0.5-3.5C355.8,959.2,357.8,958.6,359.7,957.7z"/>
	<path class="st5" d="M337,945.6c-7,0-14.7-7.4-15.1-14.4c-0.2-3.8,2-5.6,5.6-4.1c6.4,2.6,10.6,7.7,13.1,14
		C341.8,943.9,340.2,945.6,337,945.6z"/>
	<path class="st5" d="M291,961.4c-2.3-0.5-4-0.5-5.1-1.2c-1.2-0.8-2.6-2.4-2.6-3.6c0-1.2,1.4-2.9,2.7-3.5c4.7-2.2,9.6-2.1,14.4-0.2
		c2.9,1.2,3.2,3.5,0.4,4.9C297.5,959.5,293.8,960.4,291,961.4z"/>
	<path class="st5" d="M402.7,1011c0.1-0.9-0.1-1.7,0.2-2.2c1.2-2.1,2.1-5.3,3.8-5.8c1.7-0.5,4.7,1.3,6.2,2.9
		c3.7,4.2,5.6,9.2,3.7,14.9c-1.4,4.3-5,5.4-8.5,2.5C404.4,1020,402.8,1015.7,402.7,1011z"/>
	<path class="st5" d="M272,1037.8c-1.4-0.7-3.4-1.2-4-2.4c-0.4-0.8,0.9-2.9,1.9-4c3.1-3.2,6.9-4.9,11.3-3.3c1.4,0.5,2.9,2.2,3.1,3.6
		c0.2,1-1.4,3-2.6,3.5C278.7,1036.4,275.5,1036.9,272,1037.8z"/>
</g>
</svg>
