<?xml version="1.0" encoding="utf-8"?>
<!-- Generator: Adobe Illustrator 23.0.1, SVG Export Plug-In . SVG Version: 6.00 Build 0)  -->
<svg version="1.1" id="Layer_1" xmlns="http://www.w3.org/2000/svg" xmlns:xlink="http://www.w3.org/1999/xlink" x="0px" y="0px"
	 viewBox="0 0 467.6 380.6" style="enable-background:new 0 0 467.6 380.6;" xml:space="preserve">
<style type="text/css">
	.st0{opacity:0.29;}
	.st1{opacity:0.56;}
	.st2{fill:#7F7F7F;}
</style>
<g class="st0">
	<path d="M353,192.9c0.4-1.5,1-3,1.1-4.6c0.2-9.3,3.9-17.1,10.1-23.8c1.4-1.6,3.4-2.6,5.7-1.7c2.5,1,4.1,3,4.5,5.7
		c0.9,6-1.5,11.2-5.1,15.7c-3.2,4.1-6.9,7.8-12.9,8.4c-1.2,0.1-2.8,3.6-2.8,5.6c-0.1,5.4,0.5,10.8,0.9,16.3c2.1-1,3.7-2,3.7-5.2
		c0-6,6.9-12.6,12.8-13.1c4.9-0.4,7.4,2.8,5.1,7.2c-3.3,6.2-7.9,10.7-15.7,10.9c-1.7,0-3.6,1.9-4.9,3.4c-2.9,3.4-3.6,7.8-4.2,12.3
		c2.8-1.6,5.4-3.4,8.1-4.5c3.9-1.6,7.8-2.5,10.2-7c2-3.8,6.1-6.2,10.8-6.8c2.3-0.3,4.4-0.1,5.8,2.1c1.3,2.2,0.5,4.2-0.8,6.1
		c-3.1,4.5-10.2,7-15.5,5.6c-1-0.2-2.2-0.3-3.1,0c-3.6,1.3-7.2,2.5-10.6,4.2c-3.9,1.9-6.4,5.1-6.6,9.6c-0.2,3.7-0.4,7.4-0.6,11.2
		c-0.1,0.7-0.6,1.3-0.9,2c-0.5-0.6-1.4-1.3-1.4-1.9c0.1-4.1,0.1-8.2,0.7-12.2c0.4-2.8-0.7-4.4-3-5.4c-1.7-0.7-3.6-1.3-5.5-1.6
		c-0.8-0.1-2,0.3-2.6,0.8c-4.3,3.7-9.3,4-14.4,2.5c-1.5-0.4-3.1-2.1-3.6-3.5c-0.7-2.1,0.4-4.1,2.4-5.4c4-2.7,13.5-2.7,16.3,1.9
		c0.3,0.4,0.7,0.9,1.2,1c2.5,0.7,5.1,1.2,7.9,1.4c-1.6-1.4-3-3-4.8-4.2c-4-2.7-8.2-5.1-12.3-7.6c-0.4-0.3-1.2-0.3-1.7-0.1
		c-6.3,1.5-14.4-3.1-15.9-9.3c-0.4-1.6,0-4.1,1.1-5.2c1.1-1,3.6-1.4,5.2-0.9c5,1.4,7.6,5.5,10.3,9.6c1.3,2,2.9,3.8,4.7,5.4
		c1.6,1.4,3.6,2.1,5.3,3.3c3.5,2.3,7,4.8,10.5,7.2c0.1-2.9-0.6-6-3.4-8.6c-3.5,2.3-6.3,0.7-9-1.7c-5.4-4.9-8.2-11.1-8.6-18.3
		c-0.3-5.9,3.9-8.4,9.2-6c6.4,2.8,11.7,12.2,10.4,19.5c-0.7,3.8,0.7,6.2,3.3,9.2c0.5-4.1,1.1-7.8,1.3-11.4c0.2-2.7-0.2-5.5-0.1-8.2
		c0.1-7.1-3.1-11.8-9.7-14.1c-1.2-0.4-2.5-0.3-3.8-0.4c-1.1-0.1-2.2,0.1-3.2-0.2c-5-1.6-8.4-5-10-10c-0.9-2.6,0.4-4.1,3.2-3.8
		c6,0.6,10.6,4.3,12.2,10c0.2,0.6,0.6,1.4,1.1,1.7c2.2,1.3,4.4,2.4,7.2,3.9c-0.5-1.4-0.7-2.3-1-3.1c-1.9-5.4-3.7-10.8-5.7-16.2
		c-1-2.7-3.5-2.6-5.7-2.5c-4,0.1-7.5-2.6-8-6.6c-0.4-2.6,1.1-4,3.7-3.6c3,0.5,4.7,2.5,5.3,5.3c0.5,2.4,1.9,3,4.3,3
		c0-2,0.1-3.9,0-5.8c-0.2-2.7-1.9-4.3-4.6-4.9c-2.8-0.7-3.7-3.1-4.3-5.5c-0.6-2.3-0.3-4.4,1.6-6c1.4-1.2,3-0.9,3.8,0.5
		c1.1,2.2,1.8,4.6,2.6,7c0.4,1.4,0.8,2.8,1.1,4.1c0.2,0,0.5-0.1,0.7-0.1c1.4-2.4,2.9-4.7,4.2-7.2c0.3-0.6,0-1.5-0.2-2.3
		c-1-6,0.3-11.4,4.8-15.7c1.8-1.6,4.2-3.3,6.3-1.9c1.6,1.1,2.8,3.6,3.1,5.6c0.9,5.6-5.3,14-10.9,15.3c-0.5,0.1-1.1,0.3-1.4,0.7
		c-4.2,5.3-5.2,11.4-4.2,18.4c2.4-2.7,5.2-4,5.7-7.9c0.5-4.4,3.7-7.8,7.4-10.4c1.6-1.1,3.5-1.7,5.3-0.2c1.8,1.5,2.3,3.5,1.4,5.7
		c-1.8,4.2-4.4,7.7-8.3,10.3c-0.9,0.6-2.2,1-3.3,0.9c-4.4-0.3-8.3,4.2-6.8,8.5c2,5.7,4.3,11.3,6.5,17
		C352.4,192.8,352.7,192.9,353,192.9z"/>
</g>
<g class="st0">
	<path d="M265.7,262.9c-4,6-8,11.9-12,17.9c0.6,0.5,1.1,0.9,1.7,1.4c1.8-1.4,3.6-3,5.6-4c1-0.5,2.6-0.1,3.9-0.1
		c-0.3,1.3-0.1,2.9-0.9,3.8c-2.1,2.4-5.1,4.1-6.9,6.7c-2,3-3,6.6-4.4,9.9c0.9,0.6,1.8,1.2,2.7,1.8c1.6-2.8,3.2-5.5,4.7-8.3
		c0.8,0.2,1.7,0.4,2.5,0.7c3.2,5.9,6.4,11.7,9.6,17.6c0.5-0.2,1-0.3,1.6-0.5c-2-6-4.1-12-6.5-19.1c8.4,0.8,7.3,9,11.1,12.4
		c0.7-0.3,1.3-0.5,2-0.8c-3.1-8-6.3-16-9.4-24.1c0.7-0.4,1.4-0.8,2.1-1.2c2.6,3.2,5.3,6.3,7.9,9.5c1.9-10.4-10.1-17-8.5-28.9
		c-1-1.2-3-3.6-5-6.1c0.6-0.7,1.2-1.5,1.8-2.2c3.2,2,6.4,4,9.6,6c0.4-0.3,0.8-0.7,1.3-1c-5.3-5.7-10.6-11.4-15.9-17.1
		c0.7-0.7,1.4-1.5,2.1-2.2c4.4,3,8.7,6,13.1,9c0.4-0.3,0.8-0.5,1.2-0.8c-5.3-7.3-10.7-14.6-16-21.9c0.8-0.7,1.7-1.3,2.5-2
		c3.2,3,6.5,6,9.7,9c0.4-0.2,0.8-0.3,1.2-0.5c-2.7-5.1-5.3-10.2-8.6-16.6c3,0.2,4.8,0.3,7.3,0.5c-1.1-2.3-2.2-4.4-3-6.6
		c-0.9-2.7-1.5-5.6-2.3-8.4c2.4,1.3,4.7,2.5,8.2,4.5c-2.3-6.6-4.1-12.6-6.5-18.4c-1.7-4.2-2.3-7.3,4.2-6.4c-2.1-5-3.9-9.3-5.8-13.7
		c0.6-0.5,1.2-0.9,1.8-1.4c2,1.6,4.1,3.2,7.2,5.7c-1.5-7-2.8-13.1-4.1-19.1c0.8-0.4,1.6-0.7,2.5-1.1c1.9,3.4,3.9,6.7,6.5,11.4
		c-0.8-8.9-1.5-16.5-2.2-24.1c1-0.2,2-0.3,3-0.5c1.2,3.4,2.4,6.8,3.6,10.2c0.5,0,0.9-0.1,1.4-0.1c-1.1-8.1-2.2-16.1-3.3-24.2
		c0.7-0.2,1.5-0.4,2.2-0.6c1.4,2.3,2.8,4.7,3.4,5.7c1.6-5.2,3.6-11.3,5.5-17.3c0.8-0.1,1.7-0.2,2.5-0.3c1.3,4.6,2.6,9.1,3.9,13.7
		c0.4,0,0.8,0,1.2-0.1c0-2.2-0.2-4.5,0.1-6.7c0.2-1.9,1-3.8,1.6-5.7c1.1,1.8,2.6,3.6,3.2,5.5c0.7,2,0.6,4.3,0.8,6.7
		c4.8-0.3,9.2-0.7,13.5-1c0.2,0.8,0.4,1.6,0.6,2.4c-6.2,5.6-17.7,2-22.5,11.7c6.2-0.8,11.8-1.5,17.4-2.2c0.2,1.2,0.5,2.3,0.7,3.5
		c-7.9,2.2-15.8,4.5-23.7,6.7c0.1,0.6,0.3,1.2,0.4,1.7c4.6-0.8,9.1-1.7,13.7-2.5c0.3,0.8,0.6,1.6,0.9,2.4c-6,6.1-18.6,3.8-21.7,16.1
		c6.5-3,11.9-5.6,17.3-8.1c0.5,0.8,0.9,1.5,1.4,2.3c-6.3,8.4-21.6,8.7-22.1,22.7c4.1-2.1,8-4,11.8-5.9c0.5,0.6,1,1.3,1.5,1.9
		c-4,7.3-16,9.4-15.2,20.6c4.2-2.6,7.9-5,11.8-7c1.2-0.6,3.1,0.1,4.6,0.2c-0.9,1.4-1.4,3.5-2.7,4.2c-6.9,3.6-12.2,8.4-14.1,16.2
		c-0.2,0.9,0.1,1.9,0.2,3.4c5.9-1.6,8.4-10.6,17.4-7.3c-7.7,7.3-16.9,12-17.2,25.4c4.3-5.4,7.5-9.2,10.6-13c1,0.7,2,1.4,3,2.1
		c-4.5,7.9-9,15.7-13.6,23.6c0.8,0.5,1.5,1,2.3,1.6c2-2.1,3.9-4.5,6.2-6.3c1.1-0.9,2.9-0.9,4.4-1.3c-0.2,1.5,0,3.3-0.7,4.5
		c-3.1,5.1-6.5,9.9-9.6,14.9c-0.4,0.7-0.1,1.8,1.3,3.9c3-3.6,6-7.3,9-10.9c0.7,0.5,1.3,1,2,1.4c0.1,9.4-12.4,13-12.1,23.4
		c4.8-3.9,9.1-7.4,13.4-10.9c0.6,0.6,1.2,1.1,1.9,1.7c-2.9,9.8-16.7,13.2-16.2,26.8c4.3-4.7,7.7-8.4,11.9-13c0.6,2.5,1.3,3.9,1,4.2
		c-7.9,8.7-3.1,25.2-19.8,28.5c0.8,0.8,1.6,1.5,2.4,2.3c3.8-2.2,7.6-4.4,11.7-6.8c0.2,4.1,0.2,4.1-17.7,17c4.4-0.7,8-1.2,11.6-1.8
		c0.3,0.7,0.5,1.5,0.8,2.2c-6.7,4-13.4,7.9-21.3,12.7c4.9,0.4,7.9,0.7,11,1c0.1,0.9,0.2,1.9,0.3,2.8c-8,1.9-15.9,3.9-23.9,5.8
		c0.2,0.8,0.3,1.6,0.5,2.4c4.7,1,9.5,2,14.2,3c-0.1,0.9-0.2,1.8-0.3,2.7c-7,0-13.9,0-23.1,0c4.5,1.9,7.1,3,9.7,4.1
		c0,0.9,0,1.8,0,2.6c-2.9,0-5.7,0-8.6,0c-3,0-6,0-9.1,0c0,0.4,0,0.7-0.1,1.1c2.4,0.9,4.8,1.8,7.1,2.6c0,0.7,0,1.4,0,2.1
		c-4.5,0-9,0-13.7,0c-1,2.8,6.8,7-1.1,7.2c-2.8,0.1-5.7-2.1-9.3-2c2.1,2.2,4.2,4.4,6.3,6.6c-0.2,0.6-0.3,1.2-0.5,1.8
		c-1.9-0.3-3.8-0.4-5.6-1.1c-6.4-2.5-12.6-5.4-19.1-7.7c-0.6-0.2-2.7,2.4-3.4,4.1c-0.6,1.3-0.1,3-0.1,4.5c-0.6,0.3-1.2,0.5-1.8,0.8
		c-2.1-2.7-4.3-5.4-7.2-9c-5.1,5.6-9.8,10.9-14.5,16.1c-0.7-0.1-1.5-0.2-2.2-0.4c2-9.1-3.4-13.2-9.5-17c-1.4-0.9-2-3.2-2.9-4.9
		c2,0.3,4.1,0.3,5.8,1.1c2.4,1,4.5,2.7,6.8,4.1c0.5-0.7,1-1.4,1.6-2.1c-4.6-3.1-9.2-6.1-13.6-9.5c-1.6-1.2-2.6-3.3-3.9-5
		c2,0.1,4.2-0.1,6,0.5c3,1.1,5.9,2.7,8.8,4.1c0.4-0.8,0.8-1.6,1.3-2.4c-5.8-3.3-11.6-6.7-17.4-10c0.5-1,1-2,1.5-3
		c4.6,1.6,9.2,3.2,13.8,4.8c0.3-0.5,0.5-1.1,0.8-1.6c-6.6-3-13.2-6.1-19.8-9.1c0.2-0.8,0.5-1.7,0.7-2.5c3.5,0.3,7,0.6,10.5,0.9
		c0.1-0.5,0.2-1,0.3-1.5c-3.8-0.6-7.6-0.9-11.3-1.9c-2.6-0.7-4.9-2.3-7.4-3.5c0.3-0.6,0.6-1.2,0.9-1.8c-2.7,0.4-5.5,0.7-8.2,1.1
		c-0.3-0.9-0.7-1.9-1-2.8c4.4-1.9,8.8-3.8,13.3-5.7c0-0.5,0-1,0-1.5c-5.7-0.5-11.5-1.1-17.2-1.6c-0.1-0.9-0.2-1.8-0.3-2.8
		c4.1-0.8,8.2-1.6,12.3-2.4c0-0.6,0-1.3-0.1-1.9c-6.1,0.4-12.3,0.9-19.2,1.3c0.5-7.1,7.7-4.9,12-8.1c-6.9-5.5-13.7-0.2-21.5-0.2
		c1.1-2.6,1.9-4.3,3-6.9c-2.6,1.1-4.7,2.3-6.9,2.9c-1.4,0.4-3,0.2-4.5,0.2c0.8-1.5,1.1-3.7,2.4-4.5c3-1.9,6.5-3.2,11.5-5.5
		c-7.5-2.2-12.3,0.6-17.2,3c-1.5,0.7-3.5,0.5-5.2,0.8c0.9-1.7,1.4-4,2.8-5c2.7-2,5.9-3.2,9.9-5.3c-7.8-3.4-13.7-0.6-19.8,1.8
		c-1.9,0.7-4.2,0.4-6.4,0.5c1.4-1.7,2.5-4,4.3-5c3.4-1.8,7.2-2.9,12.2-4.9c-6.9-4.5-12.7-3.4-18.6-0.6c-1.8,0.8-3.4,2.2-5.2,2.8
		c-1.1,0.4-2.5-0.1-3.8-0.2c0.3-1.3,0.2-3.1,1.1-3.7c2.5-1.9,5.3-3.4,9.8-6.1c-6.8,0-11.8,0-16.7,0c-0.1-0.9-0.3-1.9-0.4-2.8
		c5.1-1.1,10.3-2.1,15.4-3.2c0.1-0.7,0.2-1.4,0.3-2.1c-8.4-0.8-16.8-1.6-25.3-2.4c-0.1-0.9-0.2-1.7-0.3-2.6c5-0.8,10.1-1.6,15.1-2.4
		c0.1-0.7,0.3-1.4,0.4-2.1c-7.9-1.1-15.8-2.3-23.7-3.4c0-1,0-2,0-3c4.8-0.3,9.7-0.6,15.8-1.1c-7.1-9.2-18.4-7-27.2-13.1
		c5.8-4.7,10.9,0.8,16.7-0.4c-4.3-9.3-16.6-7-20.4-16.7c3.8,1,7.6,2.1,11.3,3.1c0.3-0.5,0.5-0.9,0.8-1.4c-3.7-1.9-7.5-3.6-11-5.8
		c-2-1.2-3.5-3.2-5.3-4.9c2.2,0,4.4-0.1,6.6,0c1.4,0.1,2.7,0.4,4.1,0.7c0.3-0.6,0.6-1.2,1-1.7c-5-3.4-10.1-6.6-14.9-10.2
		c-1.8-1.4-2.8-3.7-4.2-5.7c2.2,0.4,4.4,0.7,6.6,1.3c1.1,0.3,2.2,1,4.2,0.3c-4.8-4.5-9.6-9-14.3-13.4c0.4-0.8,0.9-1.6,1.3-2.3
		c3.7,1.7,7.3,3.4,11,5.2c0.4-0.4,0.8-0.7,1.3-1.1c-5.9-5.2-11.7-10.4-17.6-15.6c2.9-1.8,2.9-1.8,15.7,3.1c-1.5-2.4-2.6-5.3-4.7-7.1
		c-3.5-3.1-7.7-5.3-11.5-8.2c-0.9-0.7-0.9-2.4-1.3-3.7c1.3-0.2,2.9-0.9,3.9-0.4c2.8,1.3,5.4,3.1,8.1,4.6c0.4-0.4,0.8-0.9,1.3-1.3
		c-3.3-3.3-6.8-6.4-9.9-9.9c-1.2-1.3-1.5-3.5-2.2-5.2c1.7,0.4,3.7,0.3,5.1,1.2c2.8,1.9,5.3,4.3,8.6,5.8c-1.4-7-6.3-11.2-12.5-14
		c-4.3-2-5.9-3.8-0.7-6.8c-1.5-0.4-3.1-0.5-4.3-1.3c-1-0.7-1.5-2.2-2.2-3.3c1.2-0.6,2.6-1.8,3.6-1.6c4.1,0.8,8.1,2.1,12.1,3.3
		c0.2-0.7,0.4-1.4,0.5-2c-7.2-1.4-14.4-2.8-21.7-4.2c0-0.8,0-1.6,0-2.4c3.9-0.5,7.9-1.1,13.6-1.8c-5.2-2.1-8.8-3.6-12.5-5
		c0.2-0.9,0.4-1.8,0.6-2.7c4.4,0.5,8.9,1,13.8,1.6c0.5-1.5,1.3-3.6,2.1-5.7c0.7-0.2,1.4-0.3,2.1-0.5c1.4,4.3,2.9,8.6,4.5,13.5
		c1.3-3.3,2.3-6.1,4.1-10.7c4.9,8-0.7,14.3,0.8,21.7c3.4-4.5,6.1-8.2,7.8-10.5c6.1,2.7,11,4.9,15.8,7.1c0.4-0.7,0.8-1.4,1.3-2.1
		c-5.5-3.6-10.9-7.2-16.4-10.9c0-0.5,0-1.1,0.1-1.6c2.7-0.2,5.4-0.4,8.6-0.6c-2.7-2.5-5.2-4.8-7.8-7.1c0.3-0.7,0.6-1.3,0.9-2
		c2.7,0.6,5.4,1.3,8.6,2c0.7-1.5,1.6-3.5,3.3-7.1c1.8,3.7,2.9,5.9,4,8.1c1.4-1.2,2.7-2.4,5.4-4.7c0,8.4,0,15.3,0,24.1
		c2.1-4.8,3.5-7.8,4.9-10.9c0.8,0.2,1.7,0.4,2.5,0.6c-0.5,7.4-1.1,14.9-1.6,22.3c0.5,0.1,0.9,0.1,1.4,0.2c0.9-2.7,1.7-5.4,2.6-8.2
		c0.7,0.1,1.5,0.2,2.2,0.3c0,4.5,0,9,0,13.2c10.7,1.9,2.4,8.9,5.9,12.5c1.3,2.8,3.8,5.6,3.7,8.4c-0.1,5.4-1.6,10.7-2.4,16.1
		c-0.4,2.6-0.6,5.2,0.3,8.2c2.1-3.4,4.1-6.8,6.2-10.3c0.9,0.4,1.8,0.9,2.7,1.3c-1,3.8-2.1,7.7-3.1,11.6c1.9-0.1,3.7-0.3,5.6-0.4
		c-0.4,1.8-0.6,3.6-1.1,5.3c-1.3,4.7-2.7,9.3-2.6,14.5c1.9-3.7,3.7-7.5,5.6-11.2c0.8,0.2,1.7,0.5,2.5,0.7
		c-0.9,6.8-1.8,13.6-2.8,20.5c0.6,0.1,1.1,0.3,1.7,0.4c1.5-3.1,3-6.1,4.5-9.2c0.8,0.2,1.6,0.4,2.4,0.7c-0.6,6.8-1.2,13.7-1.8,20.5
		c0.4,0.1,0.8,0.2,1.1,0.3c1.9-3.2,3.7-6.5,5.6-9.7c0.6,0.2,1.2,0.3,1.7,0.5c-0.4,7.9-0.8,15.9-1.2,23.8c0.8,0.1,1.7,0.2,2.5,0.3
		c1.2-5.1,2.4-10.2,3.6-15.4c0.9,0.1,1.8,0.3,2.7,0.4c0,6.9,0,13.9,0,20.8c0.5,0.1,1,0.1,1.5,0.2c0.8-3.4,1.5-6.9,2.3-10.3
		c0.7-0.1,1.5-0.1,2.2-0.2c2.5,8.8-0.1,19.3,7.8,27.4c0.6-6.3,1.1-11.7,1.6-17.1c1,0,2,0,3,0c0.9,8.7,1.9,17.3,2.8,26
		c1-0.1,2.1-0.2,3.1-0.3c0-5.4,0-10.7,0-16.3c6.3,4.9,12,9.3,19.1,14.9c-2.2-11.5-11.8-13.4-17.5-18.9c0.4-0.8,0.7-1.6,1.1-2.5
		c4.2,1.5,8.4,2.9,14.4,5c-5.9-5.8-10.7-10.5-15.5-15.2c0.7-0.7,1.4-1.5,2.1-2.2c4,2.5,7.9,5.1,11.9,7.6c0.5-0.4,0.9-0.8,1.4-1.2
		c-3.3-3.6-6-8.1-9.9-10.7c-5.9-4-9.8-8.2-7.5-16.8c4,1.4,7.9,2.9,11.8,4.3c0.4-0.5,0.7-1.1,1.1-1.6c-4-2.8-8.1-5.5-12-8.5
		c-1.7-1.3-2.9-3.2-4.4-4.9c2.2,0.1,4.3,0,6.5,0.4c1.1,0.2,2.2,0.9,3.2,1.4c0.4-0.6,0.8-1.3,1.2-1.9c-5.4-3.4-10.8-6.8-17.5-11
		c3.3-1,5.4-1.6,6.6-1.9c-4.7-4.2-9.8-8.6-15.7-13.8c2.1-1.4,4.5-2.9,7.6-4.9c-4.7-0.5-8.7-0.9-12.8-1.3c-0.1-0.7-0.2-1.3-0.3-2
		c2.3-1.2,4.7-2.4,7.2-3.7c-1.8-2.3-3.5-4.4-5.2-6.6c0.5-0.7,1-1.5,1.5-2.2c3.3,1.8,6.5,3.5,10.4,5.6c0-1.4-0.3-2.6,0.1-3.6
		c0.4-1.2,1.4-2.2,2.1-3.3c1,0.9,2.4,1.7,2.8,2.9c1.2,3.6,1.9,7.4,4.4,10.9c0.3-4.8,0.5-9.5,0.8-14.3c0.8,0,1.6-0.1,2.4-0.1
		c4.7,7,0.2,16,3.9,24.9c1.1-4.5,1.8-7.6,2.6-10.6c0.8,0.1,1.7,0.2,2.5,0.2c0,5,0,9.9,0,15.4c4.4-2,7.8-3.5,6.6,3.1
		c-0.9,4.8-1.3,9.7-1.1,14.8c1.4-2.8,2.8-5.6,4.2-8.4c0.9,0.3,1.8,0.5,2.7,0.8c-0.8,5-1.5,10.1-2.3,15.1c1.6-1.3,3.1-2.6,6.5-5.4
		c-0.5,4.8-0.7,7.5-1.1,11.1c8.5-7,14.3,1.2,22.2,3.7c-3.7-11.6-15.4-12.2-23.6-19.1c8.2-3.5,12.7,3.6,19.4,2.1
		c-6.7-4.4-13.4-8.9-20.1-13.3c0.2-0.8,0.4-1.6,0.6-2.3c4.2,1.1,8.3,2.2,12.5,3.3c0.4-0.3,0.8-0.6,1.2-0.9
		c-5.5-5.3-11.1-10.6-17.5-16.8c6.9-3.1,10,3.7,15.9,3.6c-4.4-4.9-8.7-9.7-13.1-14.6c0.2-0.6,0.4-1.1,0.5-1.7
		c2.8,0.7,5.6,1.3,10.4,2.5c-4.5-4.6-8-7.9-11.1-11.5c-1.3-1.5-1.8-3.5-2.7-5.3c2,0.6,4.2,1,6.1,1.8c1.2,0.5,2.2,1.7,4.4,1.6
		c-3-4.7-6.1-9.4-9.1-14.1c0.8-0.6,1.5-1.2,2.3-1.8c3.4,3.1,6.8,6.2,10.2,9.4c0.6-0.4,1.2-0.8,1.8-1.2c-3.6-5.6-7.1-11.1-10.7-16.7
		c0.5-0.6,0.9-1.1,1.4-1.7c3.1,2,6.3,4.1,9.4,6.1c0.5-0.2,0.9-0.4,1.4-0.6c-3-6.4-6.1-12.8-9.1-19.2c1-0.7,2-1.5,2.9-2.2
		c2.3,3.5,4.5,7,6.8,10.5c0.7-0.5,1.5-1,2.2-1.6c-2.1-6-4.1-12-6.7-19.6c3.6,1.6,5.6,2.5,8,3.5c-1.4-5.5-2.6-10.7-3.9-15.9
		c1-0.3,1.9-0.5,2.9-0.8c2.1,4.2,4.2,8.4,6.3,12.6c0.5-0.1,1.1-0.3,1.6-0.4c-1.6-6-3.3-12-4.9-18c1-0.3,2-0.6,3-1
		c1.8,3.2,3.6,6.3,5.8,10.1c3-3.8,5.7-7.3,8.4-10.8c0.9,0.4,1.7,0.9,2.6,1.3c-1.6,4-3.3,7.9-5.2,12.6c2.9-0.3,5.6-0.6,8.2-0.9
		c0.4,0.8,0.8,1.6,1.1,2.4c-5,2.6-10,5.2-15.1,7.9c0.2,0.5,0.4,0.9,0.7,1.4c2.7,0,5.4,0,9.7,0c-5,7.1-16.4,6.2-16.6,16.4
		c4-1.2,7.7-2.2,11.3-3.2c0.3,0.6,0.7,1.3,1,1.9c-4.2,6.6-16,6.1-16.7,16.5c4.3-1.4,8.2-2.7,12.1-4c0.5,0.8,0.9,1.6,1.4,2.4
		c-5.9,5.2-15.2,8-15,18.2c3.7-1.5,7.1-2.8,10.4-4.1c0.2,0.6,0.5,1.3,0.7,1.9c-3.6,4.4-7.4,8.7-10.8,13.3c-0.6,0.8,0.2,2.8,0.6,5.2
		c2.9-2.6,5.3-4.7,7.6-6.9c0.6,0.3,1.2,0.7,1.9,1c-0.8,8.2-11.7,14.6-6,24.4c2.6-2,4.9-3.8,7.2-5.5c0.6,0.4,1.2,0.7,1.8,1.1
		c-0.7,7.4-11.6,12.8-4.9,22c2.5-2,5-4.2,7.6-6.3c0.6,0.3,1.3,0.6,1.9,1c-0.9,7.5-10.4,13.7-4.9,22.3c3-2.6,5.7-5,8.5-7.4
		c0.7,0.6,1.4,1.3,2,1.9c-1.8,3.3-4.2,6.4-5.4,9.9c-1.2,3.4-1.2,7.2-1.7,10.8c0.6,0.1,1.2,0.2,1.8,0.3c2.1-2.4,4.1-4.9,6.2-7.3
		c0.5,0.2,1,0.5,1.6,0.7c-1.5,7.6-3.1,15.3-4.6,22.9c0.7,0.2,1.5,0.4,2.2,0.6c2.6-3.6,5.2-7.2,7.8-10.8c0.8,0.4,1.5,0.9,2.3,1.3
		c-2.8,8.3-5.5,16.6-8.3,24.8c0.6,0.3,1.2,0.5,1.7,0.8c3.4-2.1,6.9-4.2,10.3-6.2c0.5,0.7,1,1.3,1.6,2c-3.7,6.6-13.6,10.7-8.7,20.8
		c2.4-0.8,5-1.6,8.1-2.6c-2.9,7.3-5.3,13.5-7.8,19.8c0.7,0.4,1.4,0.8,2.1,1.2c2.4-1.3,4.7-2.7,7.1-4c0.5,0.4,1.1,0.7,1.6,1.1
		c-3.6,6.2-7.1,12.4-10.7,18.6c0.8,0.6,1.6,1.1,2.3,1.7c2.7-2.4,5.4-4.9,8.3-7.4c4.2,4.8,8.1,9.3,12,13.7c0.6-0.4,1.1-0.8,1.7-1.2
		c-2.5-3.7-5.2-7.3-7.5-11.2c-1.1-1.8-1.4-4.1-2.1-6.1c2,0.9,4,1.7,5.9,2.9c1,0.6,1.4,2,2.1,3c0.6-0.4,1.1-0.8,1.7-1.2
		c-2.5-4-4.9-8-8-13.1c8.2-2.2,8.3,6.2,13.5,7.6c-3.7-5.1-7.4-10.1-11.2-15.2c0.3-0.6,0.6-1.3,0.9-1.9c2.8,1.2,5.6,2.4,8.3,3.5
		c1.8-7.2-13.7-8.3-7-17.8c-2-1.7-4.1-3.5-6.2-5.2c0.5-0.9,1.1-1.8,1.6-2.8c4.1,2,8.3,4,14.7,7.1c-3.6-4.3-5.8-7.2-8.3-9.8
		c-2.4-2.4-5.3-4.5-7.9-6.7c0.3-0.6,0.6-1.1,0.9-1.7c2.2,0,4.4,0,7.9,0c-5-3.5-9-6.4-13-9.2c0.4-0.9,0.7-1.8,1.1-2.6
		c3.3,1,6.7,2,10,3c0.4-0.3,0.9-0.7,1.3-1c-3.1-3-6-6.3-9.4-8.9c-3.5-2.6-7.5-4.4-11.3-6.5c0.5-1,0.9-2,1.4-3
		c4.7,1.7,9.5,3.4,14.2,5.2c0.3-0.3,0.6-0.6,0.8-0.9c-5.4-4.1-10.9-8.1-16.3-12.2c0.5-0.8,1-1.6,1.5-2.4c3.1,1.1,6.2,2.1,9.3,3.2
		c0.4-0.6,0.8-1.2,1.3-1.8c-7.7-5.6-15.3-11.2-24.1-17.6c8.8-2.9,13.1,4.7,19.2,5.8c0.7-0.7,1.3-1.4,2-2.1
		c-6.3-5.4-12.6-10.9-18.9-16.3c0.4-0.7,0.8-1.4,1.3-2.1c2.9,0.9,5.7,1.9,10.8,3.5c-6.5-6.5-11.5-11.5-16.6-16.6
		c0.7-0.9,1.5-1.7,2.2-2.6c4,2.8,7.9,5.5,11.9,8.3c0.5-0.5,1.1-1,1.6-1.5c-6-5.6-12.1-11.3-18.1-16.9c0.4-0.7,0.8-1.5,1.2-2.2
		c3.3,1.5,6.6,3,12.1,5.5c-5-5.7-8.7-9.9-12.5-14.1c0.6-0.8,1.3-1.6,1.9-2.4c3.8,2.7,7.6,5.3,11.5,8c0.5-0.2,1-0.4,1.5-0.6
		c-2.4-5-5-10-7.1-15.1c-0.7-1.6-0.4-3.7-0.5-5.6c1.5,0.9,3.4,1.5,4.5,2.8c1.7,2,3,4.5,6.1,6.6c-1-7.1-2.1-14.2-3.1-21.3
		c0.9-0.2,1.8-0.4,2.6-0.6c1.6,3.3,3.2,6.7,5,10.5c1.9-3.3,3.7-6.3,6.4-11.1c3.9,8-2.5,12.4-2.3,17.9c4.5-1.1,9-2.2,13.6-3.3
		c0.4,0.8,0.8,1.6,1.1,2.4c-6.4,3.8-12.8,7.6-19.2,11.3c0.3,0.7,0.7,1.4,1,2c4-0.8,8.1-1.7,12.1-2.5c0.4,0.6,0.7,1.1,1.1,1.7
		c-3.8,6.5-18.4,4.8-14.3,17.3c3.3-1.9,6.5-3.8,9.8-5.7c0.4,0.5,0.8,0.9,1.2,1.4c-3.6,6.1-7.3,12.2-10.9,18.4
		c0.6,0.4,1.3,0.8,1.9,1.3c2.4-2.8,4.8-5.6,7.2-8.3c0.6,0.4,1.2,0.7,1.8,1.1c-1.9,7.6-3.8,15.3-5.7,22.9c0.6,0.2,1.1,0.5,1.7,0.7
		c0.6-0.8,1-1.7,1.8-2.3c1.5-1.2,3.2-2.3,4.9-3.4c-0.1,1.9,0,3.9-0.4,5.8c-0.9,4.2-2.1,8.4-3.4,13c1.5-0.2,2.1-0.2,2.3-0.4
		c2-2.6,3.9-5.2,5.9-7.8c-0.3,3.1-0.6,6.3-1,9.4c-0.6,5.2-1.3,10.3-0.2,15.8c2.2-3.6,4.3-7.3,6.5-10.9c0.8,0.3,1.7,0.7,2.5,1
		c-2,8.3-4,16.5-6,24.8c0.6,0.3,1.2,0.5,1.8,0.8c2.8-3.4,5.6-6.7,8.4-10.1c1,0.5,2,1,3,1.5c-3.3,8.3-11.3,15.5-7.7,26.2
		c3-3.4,5.7-6.6,8.4-9.8c0.8,0.4,1.5,0.9,2.3,1.3c-3.1,7.2-6.1,14.3-9.2,21.5c0.5,0.3,1,0.7,1.5,1c2.8-2.4,5.5-4.8,8.3-7.2
		C263.9,261.9,264.8,262.4,265.7,262.9z M67.2,170.9c0.5-0.8,1-1.6,1.5-2.5c3.1,1.3,6.2,2.6,9.2,3.9c0.6-0.5,1.2-0.9,1.7-1.4
		c-6-7.5-12-15.1-18-22.6c0.4-0.5,0.8-1,1.3-1.5c2.7,1.3,5.5,2.7,10.2,5c-7.9-8.1-16.1-14.1-14.9-26c-0.2-0.1-2-0.5-3.3-1.5
		c-1.3-1.1-2.1-2.8-3-4.2c1.7-0.1,3.5-0.5,5.1-0.2c2,0.4,4,1.4,5.9,2.1c0.3-0.8,0.6-1.6,1-2.4c-6.5-2.6-13-5.3-20.1-8.2
		c-2.6,4.9-4.9,9.3-7.3,13.8c2.5-0.9,3.4-2.8,4.8-4.1c1-1,2.7-1.4,4.1-2.1c0.1,1.5,0.6,3.2,0.1,4.5c-1.3,3.2-3.1,6.2-4.7,9.3
		c-0.3,0.5-0.1,1.3-0.2,1.8c2.1-0.3,4-0.5,7.2-0.9c-3.9,6.8-7,12.1-10.1,17.4c0.5,0.2,0.9,0.4,1.4,0.7c2.7-2.2,5.4-4.5,8.1-6.7
		c0.6,0.6,1.2,1.1,1.8,1.6c-2.8,5.1-5.6,10.3-9,16.6c4.7-1.9,7.4-3.1,10.1-4.2c0.4,0.7,0.8,1.3,1.2,2c-2.1,2.6-4.6,5-6.2,7.8
		c-1.6,2.7-2.3,6-3.4,9c0.6,0.2,1.2,0.3,1.8,0.5c2.2-3.4,4.5-6.7,6.7-10.1c0.9,0.4,1.8,0.9,2.7,1.3c-2.4,6.8-4.7,13.6-7.1,20.4
		c0.6,0.1,1.2,0.3,1.8,0.4c2.2-3.1,4.3-6.2,6.5-9.3c0.7,0.4,1.4,0.7,2.1,1.1c-1.8,7.1-3.6,14.2-5.4,21.2c0.6,0.1,1.3,0.3,1.9,0.4
		c1.8-2.5,3.7-5,5.5-7.6c0.7,0.4,1.4,0.8,2.2,1.2c-0.9,4.4-1.7,8.8-2.9,15c2.8-3,4.4-4.7,7.3-7.8c0,8.2,0,14.7,0,21.1
		c0.4,0,0.8,0,1.2-0.1c0.3-3.2,0.5-6.4,0.8-9.6c1-0.1,1.9-0.2,2.9-0.4c1.1,5.3,2.2,10.6,3.3,16.1c1.8-1.6,3.2-2.8,5.2-4.6
		c2.1,8,3.9,14.9,5.8,21.8c0.3-0.2,0.7-0.4,1-0.5c0.4-4.1,0.8-8.2,1.3-12.3c0.8,0,1.6,0.1,2.3,0.1c1.8,6.6,3.6,13.3,5.5,19.9
		c0.7-0.1,1.4-0.3,2.2-0.4c0.9-8.7-1.6-19.7,14.5-17.7c-0.5-0.7-1-1.4-1.5-2.2c-7.4-1-14.9-2-22.3-3c0-1,0.1-2,0.1-3
		c5-0.4,10-0.9,15-1.3c-2.2-1.7-4.7-2.4-7.1-3.1c-3.1-0.9-6.2-1.7-9.1-3.1c-1.1-0.5-1.4-2.6-2.1-4c1.3-0.2,2.7-0.7,3.9-0.4
		c2.1,0.4,4.1,1.3,6.8,2.3c-3.2-7.6-13.2-6.5-15.6-15.8c4.7,1.5,7.7,2.5,10.8,3.5c0.2-0.4,0.4-0.9,0.6-1.3
		c-4.9-2.8-9.9-5.7-14.8-8.5c0.1-0.6,0.2-1.2,0.3-1.8c3.1,0,6.1,0,9.2,0c0.1-0.5,0.2-1,0.4-1.6c-5.8-3.8-11.6-7.6-17.4-11.4
		c0.3-0.8,0.6-1.7,0.9-2.5c3.7,1,7.5,1.9,13,3.4C76,178.9,71.6,174.9,67.2,170.9z M172.8,267.9c0.5,0.3,1,0.7,1.6,1
		c0.6-0.4,1.1-1,1.7-1.3c2.3-1.2,4.7-2.3,7-3.4c-1,2.2-2,4.5-3.1,6.7c-1,1.9-2.1,3.6-3.5,6c2.7-0.7,4.6-1.2,7.8-2.1
		c-1.1,3.6-1.8,5.7-2.9,9.1c1.5,0.8,3.4,1.9,4.8,2.7c-1.6,5.2-2.9,9.5-4.4,14.6c3.4-0.9,5.4-1.4,8.2-2.1c-0.6,4.9-1.1,8.9-1.7,12.9
		c7.2,2.1,8.2,5.9,5.6,16.4c4.8,5,8.7,9.1,12.5,13.2c0.5-0.1,0.9-0.3,1.4-0.4c-3.2-6.8-6.4-13.7-9.6-20.5c0.6-0.4,1.2-0.8,1.8-1.2
		c2.9,2.6,5.7,5.2,8.6,7.7c0.5-0.3,1.1-0.6,1.6-0.9c-4.2-7.1-8.4-14.2-12.5-21.3c0.8-0.6,1.6-1.1,2.4-1.7c4,4.4,8,8.8,12.6,13.8
		c-0.2-9.8-7.5-14.3-13.3-19.7c0.6-0.8,1.2-1.6,1.8-2.4c3.5,1.7,7.1,3.4,10.6,5c0.3-0.3,0.6-0.6,0.8-0.9c-4.3-3.8-8.6-7.6-13-11.4
		c0.6-0.7,1.2-1.4,1.8-2.2c3.8,1.7,7.6,3.4,12.2,5.5c-3.4-12.2-13.9-15.9-21.6-22.6c8.1-3.3,12.1,4.7,18.8,6.4
		c-0.2-14.8-15.9-12.6-22.3-20.1c0.4-0.8,0.8-1.6,1.2-2.4c5,1.6,10.1,3.3,16.3,5.3c-5.1-10.7-14.6-13.5-23.2-18.7
		c-3.6,4.9-7.1,9.7-10.5,14.6c0.9,0.8,1.8,1.5,2.7,2.3c1.2-2.7,2.4-5.4,3.6-8.1c1.1,0.7,2.2,1.5,3.3,2.2
		C178.8,255.7,175.8,261.8,172.8,267.9z M170.9,242.7c11.6-13.9,21.9-3.8,32.8,1.6c-3.4-14-15.8-14.8-24.6-20.5
		c7.2-3.4,12.8,2.2,20.7,3.2c-5.9-9.7-13.7-13.8-23-16.8c-1.5,3.6-2.8,6.5-4.3,10c6-0.1,5.9,2.5,4.1,6.6
		C174.4,232,172.8,237.5,170.9,242.7z M103.7,266.4c1,0,1.9,0,2.9,0c0.4-5.3,0.8-10.6,1.3-16.8c2.6,0.5,4.9,1,7.2,1.4
		c2.4,0.4,4.9,0.6,8.5,1.1c-7.3-8.8-12.3-10.3-22.3-7.2C102.1,251.8,102.9,259.1,103.7,266.4z M111.6,255.7c1,7.2,1.9,13.2,2.7,19.1
		c1-0.1,2-0.3,3-0.4c-0.4-3.5-0.9-6.9-1.5-11.6c5.5-0.4,10.9-0.8,16.3-1.2c0-0.8,0-1.7,0-2.5C126,258.1,119.9,257,111.6,255.7z
		 M216.7,325.3c0.6,0.6,1.3,1.3,1.9,1.9c3.5-2.8,7-5.5,11.5-9c2,3.8,4.1,7.7,6.2,11.6c2-7.6-0.5-12.6-9.5-17.8
		C223.5,316.4,220.1,320.8,216.7,325.3z M266.1,326.8c3.9-6.9,1.1-18.8-6.1-24.8C259.2,310.8,266.9,317.8,266.1,326.8z M132,273.6
		c3.8-0.6,7.6-1.1,11.4-1.7c0.1-1,0.2-2,0.3-3c-4.2-0.9-8.5-1.9-13.8-3C131.1,269.9,131.5,271.7,132,273.6z M152.2,282.2
		c-3.3-7.6-8.5-4.5-13.2-3.6c-0.9,0.2-1.1,3.9-1.7,6c1.2,0.8,2.5,1.7,3.7,2.5c1-2.7,2.1-5.4,2.6-6.9
		C147.6,281.1,149.9,281.7,152.2,282.2z"/>
</g>
<g class="st1">
	<path d="M409.9,266.3c2.3-4.5,4.4-8.6,6.7-12.8c0.8-1.4,1.7-2.8,2.7-4c3.8-4.9,7.9-9.4,15-8.1c5.9,1.1,12,8.1,13.2,14.9
		c1.1,6.3,0.1,12.6-2.9,18c-5.3,9.6-11.2,18.9-17.3,28.1c-8.9,13.4-18.6,26.3-27.4,39.8c-3.5,5.3-5.6,11.6-8.5,17.3
		c-1.4,2.8-3,5.7-5.2,7.9c-2.6,2.6-5.4,1.6-5.4-2.1c0-5,0.4-10.2,1.8-15c3-10.8,6.8-21.5,10.2-32.2c0.3-0.9,0.4-1.7-0.2-2.9
		c-1.4,3.4-3,6.8-4.2,10.2c-4.7,13.4-9.4,26.9-9.6,41.3c0,1.2-0.3,2.4-0.8,3.5c-1.4,3.2-4.5,3.6-6,0.5c-1.5-3.1-2.8-6.6-2.9-9.9
		c-0.3-22.7,0.7-45.4,4.3-67.8c1.2-7.7,3.9-15.3,6.6-22.7c1.1-3.2,3.4-6.1,5.9-8.5C393.5,254.2,403.1,256.1,409.9,266.3z
		 M430.9,244.7c-4.2,0.1-7.2,3.8-4.9,7.3c2.8,4.2,6.5,8,10.6,11c3.3,2.4,7.1-0.3,7.3-4.4C444.4,252.4,437.1,244.6,430.9,244.7z
		 M395.4,259c-1.8,0.9-3.9,1.5-5.4,2.7c-0.5,0.4-0.2,2.7,0.5,3.5c3.5,4.1,7.8,7,13.2,7.6c3.8,0.4,5.2-1.5,3.9-5.2
		C406,263.1,401.1,259.8,395.4,259z"/>
	<path d="M349.2,271.5c1.1-12,1.4-23.2,3.3-34.1c2.1-12.9,10-15.1,19.8-6.5c7.2,6.3,9.9,14,7.9,23.4c-3.5,16-6.9,32-10.2,48
		c-3.9,19-3.2,38.1-1.3,57.3c0.2,1.6,0.2,3.3-0.1,4.8c-0.3,1.4-1.2,2.7-1.8,4.1c-1.3-0.9-3.1-1.5-3.7-2.7c-1.4-2.8-2.7-5.9-3.2-9
		c-2-10.8-4-21.6-5.3-32.5C352.4,306.4,350.8,288.5,349.2,271.5z M372.8,246.9c3.2,0,4.8-1.7,3.7-4.6c-2.5-6.3-6.7-11.4-13.1-14
		c-3.6-1.5-5.8,0.3-5.6,4.1C358,239.5,365.8,246.9,372.8,246.9z"/>
	<path d="M313.8,273.1c-0.1-18.3,8.3-25,22-21.9c4.8,1.1,7.1,3.9,7.6,10c0.6,6.4,0.9,12.8,1.4,19.3c2,27.1,7.2,53.7,12,80.3
		c0.4,2.2,0.8,4.5,0.8,6.8c0,3-1.9,4-4.2,2.5c-2.4-1.6-4.7-3.6-6.3-6c-2.2-3.2-3.9-6.7-5.3-10.3c-7.6-19.9-15.2-39.8-22.3-59.9
		C316.5,285.8,314.9,277.3,313.8,273.1z M326.7,262.7c2.8-1,6.5-1.9,9.8-3.5c2.8-1.4,2.5-3.7-0.4-4.9c-4.8-1.9-9.7-2.1-14.4,0.2
		c-1.2,0.6-2.6,2.3-2.7,3.5c0,1.2,1.4,2.8,2.6,3.6C322.7,262.2,324.4,262.2,326.7,262.7z"/>
	<path d="M454.8,317.2c-0.1,8.7-3.9,15.2-11.1,19.9c-7.8,5.2-15.6,10.4-23.5,15.5c-9.4,6.2-17.5,13.7-24.7,22.3
		c-0.9,1.1-1.9,2.3-3.2,3c-2.7,1.6-5.3,0-5.1-3.1c0.2-2.1,0.6-4.4,1.5-6.2c4.2-7.9,8.2-16,13.2-23.4c7.1-10.5,14.8-20.8,22.8-30.6
		c3.7-4.6,8.4-8.8,13.5-11.7c7.5-4.3,13.6-1,15.6,7.6C454.3,312.7,454.4,315,454.8,317.2z M438.5,312.2c0,4.7,1.6,9,5.5,12.2
		c3.5,2.9,7,1.8,8.5-2.5c1.9-5.7,0-10.7-3.7-14.9c-1.5-1.7-4.5-3.4-6.2-2.9c-1.7,0.5-2.7,3.7-3.8,5.8
		C438.4,310.6,438.6,311.3,438.5,312.2z"/>
	<path d="M351.2,374.1c-6.3-2.4-12.7-4.6-18.9-7.2c-9.2-3.9-17.7-9.1-24.4-16.6c-2.6-2.9-4.7-6.6-6-10.3c-1.8-5.3,0.7-9.4,5.9-11.6
		c7-2.9,14.1-0.9,18.3,5.5c3.3,4.9,6.1,10.1,9.4,15c4.4,6.7,9.1,13.2,13.6,19.9c1,1.4,1.9,2.8,2.8,4.2
		C351.6,373.4,351.4,373.8,351.2,374.1z M307.7,339.1c3.5-0.9,6.7-1.5,9.7-2.6c1.2-0.5,2.8-2.4,2.6-3.5c-0.2-1.4-1.7-3.1-3.1-3.6
		c-4.4-1.6-8.2,0.2-11.3,3.3c-1,1-2.3,3.1-1.9,4C304.4,337.9,306.4,338.4,307.7,339.1z"/>
	<path class="st2" d="M430.9,244.7c6.2-0.1,13.5,7.7,13.1,13.9c-0.3,4-4,6.7-7.3,4.4c-4.1-2.9-7.9-6.8-10.6-11
		C423.7,248.5,426.6,244.8,430.9,244.7z"/>
	<path class="st2" d="M395.4,259c5.7,0.8,10.6,4.1,12.2,8.7c1.3,3.6-0.1,5.6-3.9,5.2c-5.5-0.6-9.8-3.5-13.2-7.6
		c-0.7-0.8-1-3.1-0.5-3.5C391.5,260.5,393.6,259.9,395.4,259z"/>
	<path class="st2" d="M372.8,246.9c-7,0-14.7-7.4-15.1-14.4c-0.2-3.8,2-5.6,5.6-4.1c6.4,2.6,10.6,7.7,13.1,14
		C377.6,245.2,376,246.9,372.8,246.9z"/>
	<path class="st2" d="M326.7,262.7c-2.3-0.5-4-0.5-5.1-1.2c-1.2-0.8-2.6-2.4-2.6-3.6c0-1.2,1.4-2.9,2.7-3.5
		c4.7-2.2,9.6-2.1,14.4-0.2c2.9,1.2,3.2,3.5,0.4,4.9C333.2,260.8,329.5,261.7,326.7,262.7z"/>
	<path class="st2" d="M438.5,312.2c0.1-0.9-0.1-1.7,0.2-2.2c1.2-2.1,2.1-5.3,3.8-5.8c1.7-0.5,4.7,1.3,6.2,2.9
		c3.7,4.2,5.6,9.2,3.7,14.9c-1.4,4.3-5,5.4-8.5,2.5C440.1,321.2,438.5,316.9,438.5,312.2z"/>
	<path class="st2" d="M307.7,339.1c-1.4-0.7-3.4-1.2-4-2.4c-0.4-0.8,0.9-2.9,1.9-4c3.1-3.2,6.9-4.9,11.3-3.3
		c1.4,0.5,2.9,2.2,3.1,3.6c0.2,1-1.4,3-2.6,3.5C314.5,337.6,311.3,338.2,307.7,339.1z"/>
</g>
</svg>
