<?xml version="1.0" encoding="utf-8"?>
<!-- Generator: Adobe Illustrator 23.0.1, SVG Export Plug-In . SVG Version: 6.00 Build 0)  -->
<svg version="1.1" id="Layer_1" xmlns="http://www.w3.org/2000/svg" xmlns:xlink="http://www.w3.org/1999/xlink" x="0px" y="0px"
	 viewBox="0 0 226.9 104" style="enable-background:new 0 0 226.9 104;" xml:space="preserve">
<style type="text/css">
	.st0{opacity:0.15;enable-background:new    ;}
</style>
<path class="st0" d="M219.7,32.5c2.6-4.2,4.8-8.6,7.2-13v-2.8c-1.7-0.3-3.6-1.3-4.9-0.7c-4,1.7-7.7,3.9-11.5,6
	c-10.8,6-21.5,11.9-32.2,17.8c-2.5,1.4-4.9,0.9-7.4-0.6c-11.5-7-23.1-13.9-34.8-20.5c-4.4-2.5-9.3-3.9-14.6-6.1
	c3.6-2.6,6.9-4.9,10.9-7.8c-3.8-1.1-6.9-2.1-10-2.8c-12.6-3-25.1-3-37.2,2.3c-6,2.6-12.4,2.3-18.6,3.3C43.9,11.2,24.5,21,9.1,38.2
	c-3,3.3-5.4,7.3-7.4,11.3C-1.5,55.9,0,62.1,4.8,67.2c5.4,5.6,12.1,9.4,19.4,11.8c2.4,0.9,5.6,0.2,8.2-0.5c4-1.1,7.8-2.8,11.7-4.2
	c0.6-0.2,1.2-0.3,1.8-0.5c0.2,0.1,0.4,0.3,0.6,0.5c-0.8,1.2-1.4,2.5-2.4,3.4c-1.7,1.5-3.8,2.7-5.7,4.1c-2.7,1.9-2.6,2.6,0.6,4
	c8.6,3.9,17.6,6.1,26.9,7.4c1.5,0.2,3,0.5,4.3,1.2c9.6,4.9,19.6,8.7,30.6,9.2c0.2,0,0.5,0.3,0.7,0.4h2.8c6-0.9,11.9-1.8,17.8-2.8
	c2.4-0.4,4.7-1,7.9-1.6c-4.2-3.4-7.7-6.4-11.8-9.7c1.5-0.6,2.4-0.9,3.2-1.2c17.4-5.3,33.7-12.7,48.1-23.9c1.8-1.5,3.2-0.6,4.9,0.1
	c12.4,5.2,24.7,10.7,37.3,15.5c4.7,1.9,10,2.2,15.1,3.2v-1.7c-4.2-5-8.5-10-12.6-15.1c-1.4-1.6-2.7-3.4-3.7-5.3
	c-3.1-5.7-2.9-11.4,0.8-16.8C214.1,40.7,217.1,36.8,219.7,32.5z"/>
</svg>
