<?xml version="1.0" encoding="utf-8"?>
<!-- Generator: Adobe Illustrator 23.0.1, SVG Export Plug-In . SVG Version: 6.00 Build 0)  -->
<svg version="1.1" id="Layer_1" xmlns="http://www.w3.org/2000/svg" xmlns:xlink="http://www.w3.org/1999/xlink" x="0px" y="0px"
	 viewBox="0 0 226.9 104" style="enable-background:new 0 0 226.9 104;" xml:space="preserve">
<style type="text/css">
	.st0{opacity:0.48;enable-background:new    ;}
</style>
<path class="st0" d="M15.6,44.7c3.7,5.4,3.9,11.1,0.8,16.8c-1,1.9-2.3,3.7-3.7,5.3C8.6,71.9,4.3,76.9,0.1,81.9v1.7
	c5.1-1,10.4-1.3,15.1-3.2c12.6-4.8,24.9-10.3,37.3-15.5c1.7-0.7,3.1-1.6,4.9-0.1C71.8,76,88.1,83.4,105.5,88.7
	c0.8,0.3,1.7,0.6,3.2,1.2c-4.1,3.3-7.6,6.3-11.8,9.7c3.2,0.6,5.5,1.2,7.9,1.6c5.9,1,11.8,1.9,17.8,2.8h2.8c0.2-0.1,0.5-0.4,0.7-0.4
	c11-0.5,21-4.3,30.6-9.2c1.3-0.7,2.8-1,4.3-1.2c9.3-1.3,18.3-3.5,26.9-7.4c3.2-1.4,3.3-2.1,0.6-4c-1.9-1.4-4-2.6-5.7-4.1
	c-1-0.9-1.6-2.2-2.4-3.4c0.2-0.2,0.4-0.4,0.6-0.5c0.6,0.2,1.2,0.3,1.8,0.5c3.9,1.4,7.7,3.1,11.7,4.2c2.6,0.7,5.8,1.4,8.2,0.5
	c7.3-2.4,14-6.2,19.4-11.8c4.8-5.1,6.3-11.3,3.1-17.7c-2-4-4.4-8-7.4-11.3C202.4,21,183,11.2,160.3,7.6c-6.2-1-12.6-0.7-18.6-3.3
	C129.6-1,117.1-1,104.5,2c-3.1,0.7-6.2,1.7-10,2.8c4,2.9,7.3,5.2,10.9,7.8c-5.3,2.2-10.2,3.6-14.6,6.1C79.1,25.3,67.5,32.2,56,39.2
	c-2.5,1.5-4.9,2-7.4,0.6C37.9,33.9,27.2,28,16.4,22c-3.8-2.1-7.5-4.3-11.5-6c-1.3-0.6-3.2,0.4-4.9,0.7v2.8c2.4,4.4,4.6,8.8,7.2,13
	C9.8,36.8,12.8,40.7,15.6,44.7z"/>
</svg>
